<svg width="18" height="18" viewBox="0 0 18 18" fill="none" xmlns="http://www.w3.org/2000/svg">
<mask id="path-1-outside-1" maskUnits="userSpaceOnUse" x="-0.304688" y="0.213867" width="18" height="18" fill="black">
<rect fill="white" x="-0.304688" y="0.213867" width="18" height="18"/>
<path d="M11.1975 12.6981C12.1457 12.7029 12.9294 11.9643 12.9775 11.0224V10.9982L14.7039 9.06779C15.0684 8.64768 15.7001 8.58622 16.1388 8.92834C16.3502 9.10264 16.482 9.35377 16.5039 9.62617C16.5265 9.89797 16.4374 10.1674 16.257 10.373L12.8099 14.3059C12.3504 14.8306 11.6855 15.1308 10.9861 15.1302H5.80487L4.90541 16.0259L1.69531 12.9114L3.99471 10.6424C4.46195 10.1804 5.0503 9.85895 5.6921 9.71419C6.33448 9.56942 7.00476 9.60724 7.62582 9.82409L8.13046 10.0014H11.2384C11.5038 10.0008 11.7573 10.1077 11.942 10.2968C12.126 10.4865 12.2257 10.7417 12.2174 11.0052C12.1824 11.5382 11.7342 11.9501 11.1975 11.9418H9.33259C9.12302 11.9418 8.95263 12.1114 8.95263 12.3199C8.95263 12.5285 9.12302 12.6981 9.33259 12.6981L11.1975 12.6981ZM9.3161 5.46168C9.56664 5.60289 9.82846 5.72462 10.0986 5.82447C10.2144 5.86997 10.3295 5.91665 10.4435 5.96687C10.5801 6.02477 10.7071 6.101 10.8223 6.19377C10.9589 6.28653 11.0307 6.44843 11.0087 6.61151C10.9868 6.77459 10.874 6.91168 10.7172 6.96544C10.5112 7.05171 10.2856 7.08066 10.0636 7.04993C9.69844 7.00976 9.3428 6.90458 9.01509 6.73854C8.94682 6.696 8.86904 6.67118 8.78889 6.66586C8.60663 6.66586 8.55023 6.84903 8.51817 6.94712C8.4588 7.1362 8.40596 7.32705 8.35432 7.51731C8.26942 7.82871 8.32226 7.9451 8.61555 8.0875C8.93793 8.23345 9.2799 8.33095 9.63077 8.37822C9.68658 8.38413 9.7412 8.39595 9.79463 8.41308C9.8065 8.47099 9.81125 8.53066 9.80828 8.58976V8.9632C9.80235 9.0601 9.83797 9.15405 9.90624 9.22319C9.97452 9.29173 10.0689 9.32837 10.1657 9.32364H10.7279C10.8229 9.32837 10.9149 9.29232 10.9808 9.22437C11.0473 9.15642 11.08 9.06365 11.0717 8.9697V8.80012V8.45386C11.0717 8.33864 11.099 8.3026 11.2237 8.26773C11.6262 8.16256 11.9854 7.9333 12.2496 7.61246C12.5945 7.19825 12.7358 6.65287 12.6355 6.12405C12.5227 5.56094 12.1629 5.07642 11.6553 4.80344C11.3691 4.65335 11.0752 4.52041 10.7736 4.4046L10.6579 4.35792V4.35733C10.4815 4.28702 10.3159 4.19248 10.1657 4.07607C10.06 3.99985 10.0024 3.874 10.0137 3.74459C10.0386 3.61282 10.1313 3.5035 10.2583 3.45743C10.3491 3.42139 10.4465 3.40248 10.5439 3.4013C10.9464 3.37707 11.3477 3.45625 11.7099 3.63114C12.0839 3.81136 12.1659 3.54015 12.1961 3.42551C12.246 3.27425 12.2905 3.12299 12.3345 2.96404L12.3861 2.78264C12.4182 2.69637 12.4134 2.60125 12.3731 2.51852C12.3333 2.4358 12.2608 2.37316 12.1736 2.34422C11.9159 2.23077 11.6446 2.15219 11.3661 2.10964C11.1156 2.07005 11.1156 2.07005 11.1156 1.81892C11.1156 1.29127 11.0746 1.21387 10.5564 1.21387H10.2767C9.97275 1.22273 9.89082 1.31195 9.88311 1.60858V1.8142V1.9247C9.88311 2.14687 9.88311 2.14687 9.66108 2.22723C8.85246 2.51912 8.41787 3.06981 8.36919 3.86224C8.32526 4.52993 8.63695 5.05639 9.31614 5.46171L9.3161 5.46168Z"/>
</mask>
<path d="M11.1975 12.6981L11.2025 11.6981L11.1976 11.6981L11.1975 12.6981ZM12.9775 11.0224L13.9762 11.0734L13.9775 11.0479V11.0224H12.9775ZM12.9775 10.9982L12.2321 10.3316L11.9775 10.6163V10.9982H12.9775ZM14.7039 9.06779L15.4493 9.73441L15.4543 9.72882L15.4592 9.72316L14.7039 9.06779ZM16.1388 8.92834L16.7751 8.15685L16.7645 8.14816L16.7537 8.13975L16.1388 8.92834ZM16.5039 9.62617L15.5072 9.70653L15.5074 9.70889L16.5039 9.62617ZM16.257 10.373L15.5054 9.71337L15.5049 9.7139L16.257 10.373ZM12.8099 14.3059L12.0579 13.6468L12.0576 13.6471L12.8099 14.3059ZM10.9861 15.1302L10.9869 14.1302H10.9861V15.1302ZM5.80487 15.1302V14.1302H5.39186L5.09921 14.4216L5.80487 15.1302ZM4.90541 16.0259L4.20907 16.7436L4.91457 17.4281L5.61107 16.7345L4.90541 16.0259ZM1.69531 12.9114L0.992933 12.1996L0.265461 12.9174L0.998971 13.6291L1.69531 12.9114ZM3.99471 10.6424L4.69709 11.3543L4.69787 11.3535L3.99471 10.6424ZM5.6921 9.71419L5.47225 8.73865L5.47207 8.73869L5.6921 9.71419ZM7.62582 9.82409L7.95724 8.88061L7.95546 8.87999L7.62582 9.82409ZM8.13046 10.0014L7.79904 10.9448L7.95993 11.0014H8.13046V10.0014ZM11.2384 10.0014V11.0014L11.2406 11.0014L11.2384 10.0014ZM11.942 10.2968L12.6596 9.60041L12.6574 9.59814L11.942 10.2968ZM12.2174 11.0052L13.2153 11.0708L13.2164 11.0538L13.2169 11.0368L12.2174 11.0052ZM11.1975 11.9418L11.2129 10.9419L11.2052 10.9418H11.1975V11.9418ZM9.33259 12.6981L9.33261 11.6981H9.33259V12.6981ZM9.3161 5.46168L9.80714 4.59054L8.74523 6.28271L9.3161 5.46168ZM10.0986 5.82447L10.4643 4.89376L10.4549 4.89003L10.4453 4.8865L10.0986 5.82447ZM10.4435 5.96687L10.0403 6.88207L10.0531 6.88751L10.4435 5.96687ZM10.8223 6.19377L10.195 6.97256L10.2267 6.99808L10.2604 7.02094L10.8223 6.19377ZM10.7172 6.96544L10.3928 6.01953L10.3615 6.03026L10.331 6.04304L10.7172 6.96544ZM10.0636 7.04993L10.2006 6.05937L10.1868 6.05746L10.1729 6.05593L10.0636 7.04993ZM9.01509 6.73854L8.48625 7.58726L8.52374 7.61062L8.56314 7.63058L9.01509 6.73854ZM8.78889 6.66586L8.8551 5.66806L8.82203 5.66586H8.78889V6.66586ZM8.51817 6.94712L7.56757 6.6365L7.5641 6.64756L8.51817 6.94712ZM8.35432 7.51731L9.3191 7.78035L9.31939 7.77929L8.35432 7.51731ZM8.61555 8.0875L8.17879 8.98708L8.19088 8.99295L8.20313 8.9985L8.61555 8.0875ZM9.63077 8.37822L9.49726 9.36927L9.51135 9.37116L9.52548 9.37266L9.63077 8.37822ZM9.79463 8.41308L10.7742 8.2122L10.6568 7.63941L10.1 7.46085L9.79463 8.41308ZM9.80828 8.58976L8.80954 8.53957L8.80828 8.56465V8.58976H9.80828ZM9.80828 8.9632L10.8064 9.02435L10.8083 8.9938V8.9632H9.80828ZM9.90624 9.22319L9.19468 9.92583L9.19777 9.92892L9.90624 9.22319ZM10.1657 9.32364V8.32364H10.1413L10.1169 8.32483L10.1657 9.32364ZM10.7279 9.32364L10.7776 8.32487L10.7528 8.32364H10.7279V9.32364ZM10.9808 9.22437L10.2661 8.52496L10.263 8.52817L10.9808 9.22437ZM11.0717 8.9697H10.0717V9.01385L10.0756 9.05782L11.0717 8.9697ZM11.2237 8.26773L10.9709 7.30021L10.9626 7.30238L10.9543 7.30468L11.2237 8.26773ZM12.2496 7.61246L11.4811 6.97252L11.4776 6.97679L12.2496 7.61246ZM12.6355 6.12405L13.618 5.93765L13.616 5.92763L12.6355 6.12405ZM11.6553 4.80344L12.129 3.92267L12.1197 3.91785L11.6553 4.80344ZM10.7736 4.4046L10.3997 5.33205L10.4074 5.33516L10.4152 5.33814L10.7736 4.4046ZM10.6579 4.35792H9.65787V5.03295L10.2839 5.28537L10.6579 4.35792ZM10.6579 4.35733H11.6579V3.67951L11.0283 3.42845L10.6579 4.35733ZM10.1657 4.07607L10.7783 3.28566L10.7647 3.27511L10.7507 3.26503L10.1657 4.07607ZM10.0137 3.74459L9.03114 3.55865L9.02183 3.60787L9.01748 3.65777L10.0137 3.74459ZM10.2583 3.45743L10.5992 4.39752L10.6133 4.39244L10.6271 4.38693L10.2583 3.45743ZM10.5439 3.4013L10.556 4.40122L10.58 4.40093L10.604 4.39949L10.5439 3.4013ZM11.7099 3.63114L11.275 4.53163L11.2758 4.53202L11.7099 3.63114ZM12.1961 3.42551L11.2464 3.11241L11.237 3.14103L11.2293 3.17016L12.1961 3.42551ZM12.3345 2.96404L11.3727 2.69017L11.3706 2.69762L12.3345 2.96404ZM12.3861 2.78264L11.4488 2.43429L11.4351 2.47106L11.4243 2.50878L12.3861 2.78264ZM12.3731 2.51852L11.4718 2.95188L11.4744 2.9571L12.3731 2.51852ZM12.1736 2.34422L11.7706 3.25943L11.8139 3.27849L11.8588 3.29337L12.1736 2.34422ZM11.3661 2.10964L11.2101 3.09739L11.2151 3.09816L11.3661 2.10964ZM10.2767 1.21387V0.213867H10.2622L10.2476 0.214292L10.2767 1.21387ZM9.88311 1.60858L8.88345 1.58261L8.88311 1.59559V1.60858H9.88311ZM9.66108 2.22723L10.0006 3.16782L10.0014 3.16755L9.66108 2.22723ZM8.36919 3.86224L9.36704 3.9279L9.36731 3.92356L8.36919 3.86224ZM9.31614 5.46171L8.8037 6.32043L9.88702 4.64067L9.31614 5.46171ZM11.1926 13.6981C12.6714 13.7055 13.9007 12.5527 13.9762 11.0734L11.9787 10.9715C11.9581 11.3759 11.62 11.7002 11.2025 11.6982L11.1926 13.6981ZM13.9775 11.0224V10.9982H11.9775V11.0224H13.9775ZM13.7228 11.6648L15.4493 9.73441L13.9585 8.40117L12.2321 10.3316L13.7228 11.6648ZM15.4592 9.72316C15.4668 9.71438 15.4764 9.70889 15.4903 9.70754C15.5041 9.70619 15.5147 9.70972 15.5239 9.71693L16.7537 8.13975C15.8955 7.47055 14.6617 7.59052 13.9486 8.41241L15.4592 9.72316ZM15.5026 9.69983C15.507 9.70346 15.5071 9.70606 15.5072 9.70653L17.5007 9.5458C17.4568 9.00148 17.1934 8.50183 16.7751 8.15685L15.5026 9.69983ZM15.5074 9.70889C15.5074 9.70944 15.5074 9.71111 15.5054 9.71337L17.0085 11.0327C17.3675 10.6237 17.5456 10.0865 17.5005 9.54345L15.5074 9.70889ZM15.5049 9.7139L12.0579 13.6468L13.5619 14.965L17.009 11.0322L15.5049 9.7139ZM12.0576 13.6471C11.7891 13.9536 11.3993 14.1305 10.9869 14.1302L10.9852 16.1302C11.9717 16.131 12.9117 15.7076 13.5622 14.9647L12.0576 13.6471ZM10.9861 14.1302H5.80487V16.1302H10.9861V14.1302ZM5.09921 14.4216L4.19976 15.3174L5.61107 16.7345L6.51052 15.8387L5.09921 14.4216ZM5.60176 15.3082L2.39165 12.1937L0.998971 13.6291L4.20907 16.7436L5.60176 15.3082ZM2.39769 13.6232L4.69709 11.3543L3.29233 9.93065L0.992933 12.1996L2.39769 13.6232ZM4.69787 11.3535C5.0315 11.0235 5.45227 10.7934 5.91212 10.6897L5.47207 8.73869C4.64833 8.92449 3.8924 9.33722 3.29155 9.93142L4.69787 11.3535ZM5.91194 10.6897C6.37246 10.5859 6.85234 10.6132 7.29617 10.7682L7.95546 8.87999C7.15717 8.60125 6.2965 8.5529 5.47225 8.73865L5.91194 10.6897ZM7.2944 10.7676L7.79904 10.9448L8.46188 9.05787L7.95724 8.88061L7.2944 10.7676ZM8.13046 11.0014H11.2384V9.00136H8.13046V11.0014ZM11.2406 11.0014C11.2352 11.0014 11.2301 10.9991 11.2265 10.9954L12.6574 9.59814C12.2845 9.2163 11.7724 9.00016 11.2362 9.00136L11.2406 11.0014ZM11.2243 10.9932C11.2216 10.9904 11.2176 10.9837 11.2179 10.9737L13.2169 11.0368C13.2339 10.4997 13.0304 9.98255 12.6596 9.60042L11.2243 10.9932ZM11.2196 10.9397C11.2195 10.9407 11.2194 10.9408 11.2195 10.9404C11.2197 10.9399 11.2198 10.9395 11.22 10.9391C11.2203 10.9386 11.2202 10.939 11.2192 10.94C11.2181 10.9409 11.2172 10.9414 11.2168 10.9415C11.2166 10.9416 11.2164 10.9417 11.2161 10.9417C11.2158 10.9418 11.2148 10.9419 11.2129 10.9419L11.182 12.9417C12.2478 12.9581 13.1451 12.1391 13.2153 11.0708L11.2196 10.9397ZM11.1975 10.9418H9.33259V12.9418H11.1975V10.9418ZM9.33259 10.9418C8.57523 10.9418 7.95263 11.5546 7.95263 12.3199H9.95263C9.95263 12.6681 9.67081 12.9418 9.33259 12.9418V10.9418ZM7.95263 12.3199C7.95263 13.0853 8.57523 13.6981 9.33259 13.6981V11.6981C9.67081 11.6981 9.95263 11.9718 9.95263 12.3199H7.95263ZM9.33257 13.6981L11.1975 13.6981L11.1976 11.6981L9.33261 11.6981L9.33257 13.6981ZM8.82507 6.33282C9.121 6.49963 9.43103 6.64384 9.75187 6.76244L10.4453 4.8865C10.2259 4.80539 10.0123 4.70616 9.80714 4.59054L8.82507 6.33282ZM9.73283 6.75518C9.8427 6.79836 9.94388 6.83949 10.0403 6.88198L10.8467 5.05176C10.7152 4.9938 10.586 4.94157 10.4643 4.89376L9.73283 6.75518ZM10.0531 6.88751C10.1042 6.90916 10.1515 6.93754 10.195 6.97256L11.4496 5.41497C11.2627 5.26445 11.056 5.14039 10.8339 5.04623L10.0531 6.88751ZM10.2604 7.02094C10.0821 6.89987 9.98924 6.68916 10.0177 6.47804L11.9998 6.74498C12.0721 6.20771 11.8356 5.6732 11.3842 5.36659L10.2604 7.02094ZM10.0177 6.47804C10.0466 6.26327 10.194 6.0877 10.3928 6.01953L11.0416 7.91135C11.5539 7.73566 11.9269 7.28591 11.9998 6.74498L10.0177 6.47804ZM10.331 6.04304C10.2917 6.0595 10.2469 6.06578 10.2006 6.05937L9.92649 8.0405C10.3243 8.09554 10.7307 8.04392 11.1035 7.88784L10.331 6.04304ZM10.1729 6.05593C9.92603 6.02876 9.68657 5.95772 9.46705 5.8465L8.56314 7.63058C8.99904 7.85143 9.47084 7.99075 9.95417 8.04393L10.1729 6.05593ZM9.54394 5.88982C9.33445 5.75929 9.09747 5.68414 8.8551 5.66806L8.72268 7.66367C8.64061 7.65822 8.55919 7.63271 8.48625 7.58726L9.54394 5.88982ZM8.78889 5.66586C8.28975 5.66586 7.95453 5.94557 7.77965 6.19386C7.63706 6.3963 7.574 6.61704 7.56763 6.63652L9.46871 7.25773C9.4944 7.17912 9.47557 7.25922 9.41476 7.34556C9.37591 7.40072 9.30372 7.48505 9.18574 7.55528C9.06008 7.63009 8.92065 7.66586 8.78889 7.66586V5.66586ZM7.5641 6.64756C7.49846 6.85662 7.4413 7.06355 7.38924 7.25534L9.31939 7.77929C9.37063 7.59056 9.41915 7.41579 9.47225 7.24669L7.5641 6.64756ZM7.38953 7.25428C7.33935 7.43832 7.23679 7.85122 7.43374 8.28176C7.62968 8.71011 8.00713 8.90374 8.17879 8.98708L9.05231 7.18793C9.00881 7.16681 9.02493 7.17028 9.06275 7.20046C9.10867 7.23709 9.19183 7.31721 9.25248 7.4498C9.31331 7.58277 9.31975 7.6991 9.31718 7.75992C9.31507 7.80993 9.30668 7.8259 9.3191 7.78035L7.38953 7.25428ZM8.20313 8.9985C8.6152 9.18505 9.05124 9.30918 9.49726 9.36927L9.76429 7.38717C9.50856 7.35272 9.26065 7.28185 9.02797 7.17651L8.20313 8.9985ZM9.52548 9.37266C9.50993 9.37101 9.49756 9.36798 9.48924 9.36531L10.1 7.46085C9.98484 7.42391 9.86323 7.39724 9.73606 7.38378L9.52548 9.37266ZM8.81501 8.61396C8.81042 8.59156 8.80817 8.56689 8.80954 8.53957L10.807 8.63994C10.8143 8.49444 10.8026 8.35042 10.7742 8.2122L8.81501 8.61396ZM8.80828 8.58976V8.9632H10.8083V8.58976H8.80828ZM8.81016 8.90204C8.78666 9.28552 8.92866 9.65641 9.19469 9.92582L10.6178 8.52056C10.7473 8.65169 10.818 8.83468 10.8064 9.02435L8.81016 8.90204ZM9.19777 9.92892C9.4653 10.1975 9.83468 10.341 10.2145 10.3224L10.1169 8.32483C10.3031 8.31573 10.4837 8.38597 10.6147 8.51746L9.19777 9.92892ZM10.1657 10.3236H10.7279V8.32364H10.1657V10.3236ZM10.6782 10.3224C11.0582 10.3413 11.4307 10.1969 11.6987 9.92057L10.263 8.52817C10.3992 8.38775 10.5876 8.31542 10.7776 8.32487L10.6782 10.3224ZM11.6956 9.92378C11.9681 9.64528 12.1016 9.26411 12.0678 8.88159L10.0756 9.05782C10.0583 8.8632 10.1266 8.66756 10.2661 8.52497L11.6956 9.92378ZM12.0717 8.9697V8.80012H10.0717V8.9697H12.0717ZM12.0717 8.80012V8.45386H10.0717V8.80012H12.0717ZM12.0717 8.45386C12.0717 8.45562 12.0725 8.51564 12.0537 8.59966C12.032 8.69646 11.9835 8.82934 11.8791 8.95868C11.7776 9.08446 11.6659 9.15396 11.5958 9.18911C11.5618 9.20619 11.5345 9.21671 11.5189 9.2223C11.5032 9.22793 11.4935 9.23064 11.493 9.23078L10.9543 7.30468C10.8781 7.32599 10.5597 7.409 10.3227 7.70265C10.069 8.01697 10.0717 8.36417 10.0717 8.45386H12.0717ZM11.4765 9.23525C12.0821 9.07701 12.6231 8.73194 13.0215 8.24812L11.4776 6.97679C11.3476 7.13467 11.1703 7.2481 10.9709 7.30021L11.4765 9.23525ZM13.018 8.25238C13.554 7.60876 13.774 6.76033 13.6179 5.93766L11.653 6.31044C11.6976 6.5454 11.635 6.78774 11.4811 6.97253L13.018 8.25238ZM13.616 5.92763C13.4444 5.0708 12.8977 4.33616 12.1289 3.92272L11.1816 5.68415C11.4281 5.81669 11.601 6.05107 11.655 6.32047L13.616 5.92763ZM12.1197 3.91785C11.7992 3.74974 11.4699 3.60078 11.1321 3.47105L10.4152 5.33814C10.6805 5.44003 10.939 5.55697 11.1908 5.68903L12.1197 3.91785ZM11.1476 3.47715L11.0318 3.43047L10.2839 5.28537L10.3997 5.33205L11.1476 3.47715ZM11.6579 4.35792V4.35733H9.65787V4.35792H11.6579ZM11.0283 3.42845C10.9383 3.39258 10.8543 3.34455 10.7783 3.28566L9.55311 4.86648C9.77754 5.04042 10.0248 5.18145 10.2875 5.28621L11.0283 3.42845ZM10.7507 3.26503C10.9304 3.39463 11.0293 3.6097 11.0099 3.83141L9.01748 3.65777C8.9756 4.13829 9.18966 4.60506 9.5807 4.88711L10.7507 3.26503ZM10.9963 3.93053C10.9556 4.1456 10.8045 4.3231 10.5992 4.39752L9.9174 2.51734C9.45805 2.68391 9.12171 3.08005 9.03114 3.55865L10.9963 3.93053ZM10.6271 4.38693C10.6026 4.39667 10.5789 4.40095 10.556 4.40122L10.5317 2.40137C10.3141 2.40401 10.0957 2.4461 9.88949 2.52793L10.6271 4.38693ZM10.604 4.39949C10.8362 4.38551 11.0671 4.43121 11.275 4.53163L12.1448 2.73065C11.6284 2.48129 11.0566 2.36863 10.4838 2.4031L10.604 4.39949ZM11.2758 4.53202C11.4635 4.62247 11.7008 4.699 11.9702 4.69069C12.2608 4.68172 12.5214 4.57557 12.7248 4.40488C13.0674 4.11737 13.1534 3.71702 13.163 3.68087L11.2293 3.17016C11.2245 3.18838 11.2313 3.15748 11.2512 3.11408C11.2705 3.07198 11.3233 2.97003 11.4391 2.87291C11.5714 2.76182 11.7396 2.69685 11.9086 2.69164C12.0565 2.68707 12.1433 2.72992 12.144 2.73026L11.2758 4.53202ZM13.1459 3.73862C13.2024 3.5672 13.2516 3.39943 13.2983 3.23046L11.3706 2.69762C11.3294 2.84654 11.2896 2.9813 11.2464 3.11241L13.1459 3.73862ZM13.2962 3.2379L13.3479 3.0565L11.4243 2.50878L11.3727 2.69018L13.2962 3.2379ZM13.3235 3.131C13.4511 2.78758 13.4319 2.40806 13.2718 2.07994L11.4744 2.9571C11.395 2.79443 11.3853 2.60517 11.4488 2.43429L13.3235 3.131ZM13.2743 2.08516C13.1141 1.75209 12.8265 1.50722 12.4884 1.39506L11.8588 3.29337C11.6952 3.23911 11.5524 3.1195 11.4718 2.95188L13.2743 2.08516ZM12.5765 1.429C12.2377 1.2798 11.8816 1.1768 11.5172 1.12111L11.2151 3.09816C11.4076 3.12758 11.5941 3.18174 11.7706 3.25943L12.5765 1.429ZM11.5222 1.12189C11.437 1.10842 11.4529 1.10956 11.4814 1.11725C11.5133 1.12585 11.7243 1.18172 11.9044 1.39079C12.086 1.60141 12.1097 1.82029 12.1136 1.85642C12.117 1.88744 12.1156 1.90505 12.1156 1.81892H10.1156C10.1156 1.85836 10.1142 1.97014 10.1254 2.07302C10.1372 2.18103 10.1766 2.44946 10.3894 2.69642C10.6009 2.94183 10.8588 3.02082 10.9612 3.0484C11.0602 3.07507 11.1701 3.09106 11.2101 3.09738L11.5222 1.12189ZM12.1156 1.81892C12.1156 1.69114 12.1144 1.51946 12.0905 1.35676C12.0664 1.19233 12.0033 0.910604 11.7812 0.658105C11.5471 0.391861 11.2581 0.293954 11.0604 0.25401C10.8783 0.217221 10.6924 0.213867 10.5564 0.213867V2.21387C10.6795 2.21387 10.693 2.22019 10.6644 2.2144C10.6201 2.20546 10.4386 2.15988 10.2794 1.97895C10.1324 1.81175 10.1119 1.64831 10.1117 1.64679C10.1107 1.64023 10.1123 1.64865 10.1137 1.68193C10.115 1.71441 10.1156 1.75759 10.1156 1.81892H12.1156ZM10.5564 0.213867H10.2767V2.21387H10.5564V0.213867ZM10.2476 0.214292C10.0671 0.219555 9.61002 0.241707 9.25556 0.602409C8.90444 0.959725 8.88784 1.41361 8.88345 1.58261L10.8828 1.63455C10.8838 1.5955 10.8867 1.62359 10.8708 1.6829C10.852 1.7526 10.8027 1.88142 10.6821 2.00421C10.5609 2.1275 10.4318 2.17966 10.3593 2.20007C10.2977 2.21743 10.268 2.21455 10.3059 2.21344L10.2476 0.214292ZM8.88311 1.60858V1.8142H10.8831V1.60858H8.88311ZM8.88311 1.8142V1.9247H10.8831V1.8142H8.88311ZM8.88311 1.9247C8.88311 2.00235 8.88178 1.9812 8.88529 1.94825C8.89052 1.89925 8.91403 1.72161 9.04919 1.53746C9.17927 1.36022 9.33299 1.28698 9.36181 1.27335C9.38356 1.26306 9.39495 1.26007 9.32079 1.2869L10.0014 3.16755C10.0382 3.15421 10.1329 3.12109 10.2171 3.08126C10.3083 3.03808 10.5037 2.93589 10.6615 2.72083C10.8244 2.49886 10.8618 2.27455 10.874 2.16055C10.8844 2.0626 10.8831 1.95814 10.8831 1.9247H8.88311ZM9.32154 1.28663C8.78203 1.48139 8.30073 1.78738 7.94544 2.23719C7.5864 2.69172 7.40615 3.22996 7.37107 3.80092L9.36731 3.92356C9.38092 3.70209 9.4423 3.56877 9.51488 3.47688C9.59121 3.38026 9.73151 3.26496 10.0006 3.16782L9.32154 1.28663ZM7.37135 3.79658C7.33737 4.31294 7.44183 4.81518 7.711 5.26982C7.97431 5.71458 8.36077 6.05611 8.8037 6.32043L9.82859 4.60298C9.59232 4.46199 9.48334 4.33763 9.43199 4.25091C9.3865 4.17407 9.35708 4.07923 9.36703 3.9279L7.37135 3.79658ZM9.88702 4.64067L9.88698 4.64064L8.74523 6.28271L8.74527 6.28274L9.88702 4.64067Z" fill="#6F52ED" mask="url(#path-1-outside-1)"/>
</svg>
