<svg width="17" height="15" viewBox="0 0 17 15" fill="none" xmlns="http://www.w3.org/2000/svg">
<path d="M0.461524 12.2328C0.466172 12.2547 0.473477 12.276 0.484101 12.2959V12.3092C0.494726 12.3291 0.508671 12.3477 0.524609 12.3636L0.949609 12.7886C1.6409 13.4806 2.57789 13.8691 3.55605 13.8691C4.53355 13.8691 5.47059 13.4806 6.16181 12.7886L6.58681 12.3636C6.60275 12.3477 6.61669 12.3291 6.62732 12.3092V12.2959C6.63794 12.276 6.64525 12.2547 6.64989 12.2328C6.65122 12.2189 6.65122 12.2042 6.64989 12.1903V12.1717V12.1544C6.64724 12.1319 6.64126 12.1093 6.63263 12.088L3.87353 5.6945L7.21046 5.2084H7.21112C7.42296 5.77285 8.00002 6.11285 8.59701 6.02587C9.19334 5.93821 9.64823 5.44613 9.6894 4.8445L13.0316 4.35641L10.3521 10.5448C10.3434 10.566 10.3381 10.5886 10.3355 10.6112V10.6284V10.647C10.3341 10.661 10.3341 10.6749 10.3355 10.6895C10.3401 10.7108 10.3474 10.732 10.3574 10.7519V10.7659C10.3687 10.7858 10.3819 10.8037 10.3985 10.8203L10.8235 11.2453C11.5142 11.9366 12.4518 12.3251 13.4293 12.3251C14.4068 12.3251 15.3445 11.9366 16.0351 11.2453L16.4601 10.8203C16.4767 10.8037 16.4899 10.7858 16.5012 10.7659V10.7519C16.5112 10.732 16.5185 10.7108 16.5231 10.6895C16.5245 10.6749 16.5245 10.661 16.5231 10.647V10.6284V10.6112C16.5205 10.5886 16.5152 10.566 16.5065 10.5448L13.7095 4.06741C13.7129 4.0455 13.7129 4.02359 13.7095 4.00167C13.6896 3.86554 13.5654 3.76991 13.4293 3.78519L9.62488 4.33968C9.47547 3.91203 9.11289 3.59461 8.6693 3.50296V1.38C8.6693 1.23922 8.55508 1.125 8.4143 1.125C8.27352 1.125 8.1593 1.23922 8.1593 1.38V3.50296C7.58555 3.62382 7.16585 4.11722 7.1393 4.70359L3.50283 5.23218C3.43576 5.24214 3.37533 5.278 3.33482 5.33179C3.29431 5.38625 3.27704 5.45398 3.287 5.52105C3.29099 5.53898 3.2963 5.55558 3.30427 5.57219L0.478701 12.09C0.470068 12.1112 0.464091 12.1338 0.461436 12.1564V12.1737V12.1923C0.460771 12.2055 0.460771 12.2195 0.461436 12.2328L0.461524 12.2328ZM3.56929 6.25883L6.02426 11.9353H1.09426L3.56929 6.25883ZM1.32869 12.4453H5.79646C5.20213 13.0343 4.39927 13.365 3.56249 13.365C2.72577 13.365 1.92293 13.0343 1.32852 12.4453H1.32869ZM10.9742 10.39L13.4291 4.71693L15.8975 10.39H10.9742ZM11.2019 10.9H15.6697C15.0754 11.489 14.2725 11.8197 13.4357 11.8197C12.599 11.8197 11.7962 11.489 11.2017 10.9H11.2019ZM8.41426 3.9878C8.77882 3.98846 9.09426 4.24346 9.17062 4.60007C9.16797 4.62065 9.16797 4.6419 9.17062 4.66249C9.17328 4.67312 9.1766 4.68308 9.18125 4.69304V4.76077V4.76144C9.1859 5.15854 8.88773 5.49523 8.49261 5.53905C8.0975 5.58288 7.7336 5.3199 7.65125 4.93144C7.6539 4.89558 7.64859 4.85972 7.63597 4.82585V4.75413V4.7548C7.64062 4.32847 7.98793 3.98582 8.41425 3.98781L8.41426 3.9878Z" fill="#6F52ED" stroke="#6F52ED" stroke-width="0.377778"/>
</svg>
