<?xml version="1.0" standalone="no"?>
<!DOCTYPE svg PUBLIC "-//W3C//DTD SVG 20010904//EN"
 "http://www.w3.org/TR/2001/REC-SVG-20010904/DTD/svg10.dtd">
<svg version="1.0" xmlns="http://www.w3.org/2000/svg"
 width="939.000000pt" height="1224.000000pt" viewBox="0 0 939.000000 1224.000000"
 preserveAspectRatio="xMidYMid meet">

<g transform="translate(0.000000,1224.000000) scale(0.100000,-0.100000)"
fill="#000000" stroke="none">
<path d="M4325 12027 c-79 -31 -131 -67 -155 -106 -14 -23 -30 -41 -36 -41 -6
0 -17 -6 -23 -14 -7 -8 -23 -17 -37 -20 -14 -4 -50 -16 -80 -27 -45 -17 -59
-28 -70 -55 -8 -18 -14 -46 -14 -62 0 -37 47 -103 102 -143 61 -44 92 -99 132
-234 19 -66 42 -140 50 -164 43 -119 -3 -325 -87 -391 -42 -33 -312 -120 -373
-120 -58 0 -102 -16 -167 -60 -59 -39 -64 -46 -98 -137 -26 -66 -31 -97 -36
-204 -5 -105 -3 -135 12 -179 23 -69 64 -158 76 -165 5 -4 9 -16 9 -29 0 -26
-39 -58 -104 -86 -24 -10 -47 -23 -50 -29 -4 -7 -41 -11 -90 -11 l-82 0 -88
-55 c-48 -30 -93 -55 -100 -55 -21 0 -102 -38 -115 -54 -7 -8 -36 -27 -67 -42
-63 -32 -72 -41 -89 -91 -20 -59 -64 -71 -290 -79 -114 -4 -188 -11 -194 -18
-5 -6 -11 -40 -13 -76 -2 -41 -12 -80 -25 -105 -55 -102 -57 -108 -62 -230 -6
-116 -7 -123 -40 -174 -19 -29 -57 -70 -85 -91 -43 -31 -54 -46 -69 -92 -20
-64 -24 -249 -6 -308 10 -33 8 -46 -25 -128 -24 -62 -36 -108 -36 -141 0 -27
-5 -62 -10 -77 -10 -25 -13 -26 -73 -22 -34 2 -83 14 -109 26 -56 26 -173 30
-217 8 -32 -17 -75 -76 -92 -126 -6 -19 -22 -57 -35 -84 -28 -59 -31 -107 -6
-128 30 -27 154 -108 166 -108 6 0 36 -16 66 -35 41 -27 65 -35 100 -35 42 0
50 -5 107 -61 35 -34 60 -65 57 -70 -3 -5 -17 -9 -32 -9 -15 -1 -45 -9 -67
-20 -22 -11 -52 -19 -67 -20 -34 0 -68 -42 -68 -86 0 -39 28 -74 104 -133 70
-55 74 -65 28 -88 -31 -15 -39 -25 -46 -60 l-10 -43 -72 0 c-91 0 -124 -21
-124 -80 0 -33 6 -43 43 -73 45 -36 92 -53 171 -62 27 -3 52 -7 54 -10 8 -7
-18 -34 -46 -48 -15 -6 -40 -30 -57 -53 -16 -22 -52 -54 -79 -70 -27 -16 -59
-39 -70 -50 -18 -18 -36 -22 -116 -26 -83 -5 -117 -13 -270 -66 -246 -84 -333
-130 -442 -229 -26 -24 -58 -48 -70 -53 -81 -35 -248 -227 -248 -285 0 -12 -8
-33 -19 -46 -36 -47 -44 -74 -51 -171 l-6 -98 -53 -50 -53 -51 4 -70 4 -71 64
-60 c36 -32 89 -81 118 -108 65 -60 67 -82 12 -135 -36 -35 -40 -44 -40 -90 0
-28 5 -56 11 -62 14 -14 -2 -68 -37 -130 -34 -60 -34 -174 0 -242 35 -68 71
-108 119 -130 66 -30 97 -65 97 -110 0 -70 73 -107 117 -58 11 12 23 30 26 40
17 47 94 2 152 -89 32 -49 76 -84 107 -84 7 0 34 -11 60 -25 54 -28 111 -32
163 -11 61 26 135 156 135 238 0 54 18 86 57 99 29 9 45 7 119 -20 47 -17 100
-31 118 -31 27 0 35 -6 49 -35 9 -20 17 -45 17 -57 0 -31 32 -78 97 -140 67
-64 143 -152 143 -166 0 -5 9 -21 21 -36 16 -21 29 -26 63 -26 51 0 80 19 106
70 11 21 33 47 50 56 16 10 54 55 82 100 35 54 67 91 94 108 62 39 94 111 104
233 12 152 46 210 113 198 20 -4 44 -13 54 -20 17 -13 17 -16 -6 -77 -28 -72
-38 -155 -22 -171 6 -6 11 -27 11 -48 0 -21 8 -47 20 -62 11 -14 27 -42 36
-62 14 -35 14 -39 -11 -82 -42 -76 -32 -219 20 -273 46 -48 146 -66 165 -30
16 29 29 25 46 -17 12 -28 13 -42 5 -60 -6 -13 -11 -42 -11 -65 0 -33 6 -46
34 -72 48 -44 49 -82 9 -356 -6 -36 -18 -68 -36 -92 -24 -31 -28 -44 -25 -89
3 -50 5 -53 43 -71 22 -11 47 -23 55 -27 11 -6 16 -29 18 -85 2 -61 -2 -93
-24 -159 -15 -45 -34 -88 -42 -95 -9 -6 -36 -12 -61 -12 -25 0 -57 -3 -69 -7
-31 -8 -112 -119 -112 -153 0 -14 -9 -42 -20 -63 -26 -47 -25 -76 2 -138 l21
-51 -41 -37 c-32 -30 -42 -46 -47 -84 -12 -77 -2 -159 23 -194 12 -17 22 -38
22 -47 0 -30 24 -67 57 -87 32 -20 93 -97 93 -118 0 -5 -7 -17 -16 -25 -12
-13 -41 -16 -153 -16 -131 0 -139 -1 -159 -23 -26 -28 -31 -117 -8 -136 7 -6
16 -27 19 -47 3 -20 11 -42 18 -50 18 -22 89 -18 115 7 12 12 27 18 33 14 18
-10 13 -43 -10 -64 -18 -17 -21 -28 -17 -71 6 -63 23 -82 93 -104 58 -18 70
-37 35 -56 -24 -13 -27 -67 -5 -109 12 -24 97 -96 149 -129 7 -4 27 -28 44
-54 34 -50 82 -91 119 -102 37 -11 53 -35 53 -76 0 -54 33 -74 109 -67 31 3
66 8 78 12 22 7 23 5 23 -44 0 -59 17 -91 65 -121 60 -37 188 -20 214 28 6 12
11 48 11 82 0 69 16 86 53 52 44 -40 87 -54 151 -50 78 5 112 22 154 78 19 25
64 65 101 89 151 101 205 164 223 260 11 59 23 71 73 71 29 0 54 8 79 25 32
21 48 25 115 25 96 0 103 6 113 104 13 127 19 171 28 191 5 11 18 52 29 90 34
128 60 188 120 279 32 50 67 109 78 130 29 58 62 79 135 84 81 5 108 28 108
87 0 33 -6 47 -29 67 -16 14 -31 41 -35 60 -9 48 -55 95 -102 103 -62 11 -124
37 -134 56 -6 10 -10 36 -10 58 0 31 -10 55 -45 105 -25 37 -45 68 -45 69 0 2
16 20 35 41 19 21 35 42 35 47 0 5 27 9 59 9 52 0 62 3 80 26 11 14 25 40 31
58 5 17 23 40 39 49 17 10 33 26 36 37 8 27 66 60 105 60 38 0 76 -24 145 -91
28 -27 81 -77 120 -110 38 -34 80 -77 93 -95 20 -29 28 -34 63 -34 23 0 55 6
72 14 91 39 114 41 190 17 40 -13 88 -32 107 -42 19 -11 49 -23 65 -27 21 -6
31 -15 33 -33 2 -13 8 -29 13 -36 16 -19 29 -76 20 -87 -4 -6 -18 -40 -30 -75
-34 -104 -26 -200 24 -272 27 -37 30 -39 82 -39 64 0 85 10 135 60 35 36 39
38 117 42 65 4 86 9 104 26 24 23 87 52 111 52 33 0 127 52 153 85 15 19 40
39 54 46 23 9 33 7 68 -17 32 -21 41 -33 41 -55 0 -15 -5 -31 -10 -34 -20 -12
-11 -76 16 -107 14 -18 23 -37 19 -46 -16 -43 -17 -98 -1 -111 9 -7 16 -24 16
-38 0 -27 31 -93 52 -110 7 -6 41 -19 76 -30 l64 -18 1 -63 c2 -57 5 -66 31
-89 26 -22 37 -25 82 -21 36 3 63 13 86 30 18 14 38 27 43 29 6 2 42 25 82 52
39 26 76 47 81 47 5 0 23 -7 38 -15 42 -22 82 -18 116 10 50 42 108 46 108 7
0 -10 -9 -35 -20 -57 -43 -83 -17 -126 80 -133 40 -3 73 1 100 12 22 9 50 16
61 16 27 0 74 -51 89 -94 6 -19 30 -51 53 -73 23 -22 54 -54 69 -71 l26 -32
105 0 c129 0 132 3 140 118 7 104 -2 132 -53 188 -22 24 -40 47 -40 52 0 5 9
17 21 28 28 25 49 67 49 98 0 36 35 56 96 56 68 0 101 25 109 83 13 88 -23
117 -151 117 -69 0 -153 25 -171 51 -7 9 -23 19 -37 23 -23 6 -36 30 -36 72 0
29 -44 74 -73 74 -39 0 -94 78 -67 95 5 3 10 21 10 39 0 27 7 38 39 60 52 36
63 64 55 140 l-6 62 40 33 c51 40 62 82 37 147 -23 60 -16 74 37 74 38 0 47 5
78 40 30 35 42 41 87 47 59 6 153 -22 209 -64 17 -13 38 -23 46 -23 9 0 32 -7
51 -15 20 -8 63 -15 97 -15 57 0 62 2 105 43 25 24 45 53 45 64 0 35 22 87 45
108 36 32 45 59 45 138 0 111 -30 166 -107 196 -39 16 -48 36 -28 64 36 51 6
116 -76 167 -25 15 -56 42 -68 58 -13 18 -34 33 -54 37 -84 19 -107 53 -107
157 0 80 -11 98 -59 98 -25 0 -52 9 -77 26 -26 18 -59 29 -99 33 -33 4 -69 13
-81 20 -27 18 -74 161 -74 225 0 55 -21 102 -51 111 -12 4 -45 4 -75 0 -32 -4
-61 -2 -73 5 l-21 11 22 29 c19 26 20 34 11 65 -9 29 -8 38 5 54 22 24 74 41
128 41 57 0 89 37 80 92 -5 32 -2 39 25 62 17 14 41 26 54 26 32 0 127 36 157
60 14 10 38 21 54 25 79 16 145 40 161 57 11 13 18 40 20 81 3 52 -1 71 -24
117 -16 30 -37 59 -48 65 -46 24 -75 48 -75 63 0 9 -28 42 -62 74 l-62 58 41
39 c65 63 77 114 69 288 l-7 143 26 10 c14 6 43 10 64 10 49 0 71 24 71 77 0
79 -78 113 -175 78 -23 -8 -77 -14 -126 -15 -129 0 -241 42 -391 146 -42 30
-80 54 -85 54 -7 0 -46 24 -98 60 -79 55 -107 81 -134 123 -18 26 -42 54 -55
63 -23 14 -43 42 -99 132 -92 147 -126 198 -154 237 -18 24 -33 50 -33 59 0
15 -49 112 -87 174 -23 37 -181 145 -228 156 -16 4 -53 22 -82 39 -44 26 -66
51 -124 138 -123 186 -137 270 -74 430 47 118 47 181 4 268 -21 42 -44 70 -69
87 -21 14 -44 39 -50 55 -11 26 -10 32 8 52 11 12 23 41 27 64 6 39 4 46 -24
74 -28 28 -36 30 -74 25 -142 -22 -157 -18 -157 34 0 15 -12 44 -27 63 -73 95
-83 112 -83 131 0 12 7 29 14 39 12 15 33 17 178 17 183 0 198 5 198 67 0 54
-53 81 -193 99 -38 4 -48 9 -45 22 3 15 20 17 128 20 98 2 128 6 142 19 33 30
19 98 -34 160 -39 46 -45 93 -20 151 28 66 42 141 42 225 -1 93 -24 147 -77
178 -27 15 -62 57 -123 148 -95 141 -119 160 -207 161 -44 0 -55 4 -73 28 -42
53 -85 63 -159 37 -30 -10 -48 -11 -70 -4 -36 13 -44 34 -35 94 9 61 -12 85
-72 85 -24 0 -46 -4 -49 -10 -3 -5 -15 -15 -26 -20 -16 -9 -21 -7 -29 15 -5
14 -29 50 -52 81 -109 142 -113 150 -78 172 16 10 20 23 20 70 -1 68 -25 104
-80 120 -71 21 -189 70 -218 91 -17 11 -35 21 -42 21 -7 0 -28 7 -47 17 -30
14 -52 39 -98 112 -130 204 -191 284 -244 320 -32 22 -69 55 -83 73 -15 19
-51 49 -81 68 -58 35 -87 73 -87 113 0 13 -13 51 -30 83 -35 69 -36 98 -13
232 10 53 18 125 18 159 l0 62 -70 72 c-84 85 -134 121 -206 148 -61 24 -174
27 -224 8z m206 -61 c86 -39 123 -67 189 -140 58 -64 62 -71 56 -105 -45 -253
-47 -312 -11 -389 14 -30 25 -66 25 -81 0 -39 49 -103 112 -145 29 -19 66 -51
81 -71 16 -20 51 -50 79 -67 29 -18 63 -51 82 -78 237 -359 228 -347 307 -375
22 -8 52 -23 67 -33 15 -10 74 -35 132 -57 58 -21 111 -43 118 -48 20 -15 15
-70 -8 -85 -15 -9 -20 -23 -20 -53 0 -47 18 -86 65 -138 19 -20 52 -66 73
-102 34 -55 43 -64 72 -67 22 -2 43 4 61 17 47 35 54 28 51 -39 -4 -57 -2 -62
31 -95 40 -40 84 -46 154 -21 44 15 56 11 102 -34 24 -25 38 -30 76 -30 84 0
106 -17 194 -149 54 -80 95 -130 121 -147 75 -50 90 -164 39 -300 -29 -79 -35
-160 -15 -207 8 -21 20 -37 26 -37 13 0 51 -80 44 -92 -3 -4 -60 -8 -126 -8
-143 0 -158 -7 -158 -76 0 -53 12 -61 109 -73 73 -9 128 -30 124 -46 -2 -6
-72 -11 -172 -13 l-170 -2 -20 -29 c-35 -49 -29 -110 19 -180 22 -32 47 -64
55 -71 8 -7 15 -25 15 -40 0 -15 11 -39 25 -54 21 -23 32 -26 90 -26 37 0 75
5 86 11 44 23 68 -41 29 -76 -14 -13 -20 -31 -20 -63 0 -43 4 -50 58 -101 31
-31 67 -76 79 -101 l23 -45 -43 -19 c-40 -17 -45 -17 -107 -2 -36 9 -84 16
-107 16 -41 0 -45 -3 -88 -62 -28 -39 -45 -73 -45 -91 0 -15 -5 -37 -10 -47
-14 -25 -48 -13 -106 38 -48 42 -124 104 -201 163 -29 22 -53 45 -53 52 -1 26
-57 75 -104 90 -69 24 -157 22 -198 -3 -46 -28 -61 -26 -130 23 -102 72 -112
77 -141 77 -32 0 -87 -26 -87 -40 0 -5 -18 -19 -40 -30 -23 -12 -43 -27 -47
-35 -3 -11 -21 -15 -57 -15 -79 0 -83 14 -23 74 109 108 142 193 95 249 -20
24 -34 29 -103 37 -131 16 -158 21 -195 37 -19 9 -149 92 -289 185 -139 92
-272 177 -295 187 -22 11 -79 46 -126 78 -73 51 -92 71 -151 158 -44 65 -77
128 -95 180 -15 44 -44 105 -64 135 -20 30 -47 80 -59 110 -48 112 -154 254
-290 385 -94 92 -141 144 -141 159 0 7 -13 38 -29 70 -59 115 -74 179 -68 285
3 53 12 112 20 131 7 19 22 56 31 82 27 75 133 138 230 138 66 0 330 87 380
125 74 56 116 170 116 315 0 79 -5 112 -31 195 -17 55 -43 136 -57 180 -25 81
-72 160 -101 170 -23 8 -62 44 -89 82 -21 29 -22 36 -10 60 10 22 29 34 85 53
40 14 78 31 85 38 6 6 18 12 25 12 6 0 26 20 43 45 29 42 74 74 145 102 50 19
118 15 176 -11z m-933 -2187 c10 -17 41 -48 68 -68 27 -20 59 -56 72 -79 13
-23 30 -42 37 -42 22 0 124 -145 181 -258 28 -56 63 -117 76 -135 14 -17 36
-66 49 -107 26 -83 148 -282 196 -320 46 -36 186 -125 218 -139 26 -11 514
-330 538 -351 5 -4 4 -16 -2 -26 -6 -11 -16 -32 -21 -47 -10 -27 -13 -29 -58
-24 -109 12 -192 41 -192 67 0 4 -21 31 -47 60 l-47 52 -53 -4 c-60 -5 -98
-33 -108 -78 -6 -29 -40 -50 -80 -50 -13 0 -59 11 -102 25 -43 14 -91 25 -108
25 -16 0 -61 12 -100 25 -76 27 -162 33 -198 13 -23 -12 -394 -15 -448 -3 -24
6 -31 16 -54 86 -28 84 -29 106 -9 329 5 58 2 76 -28 154 -19 51 -46 103 -64
122 -28 31 -37 34 -86 34 -65 0 -78 -11 -103 -90 -17 -54 -40 -90 -57 -90 -4
0 -38 -18 -74 -40 -36 -22 -105 -52 -152 -66 -125 -38 -305 -153 -337 -215
-14 -26 -20 -29 -65 -29 -64 0 -85 -20 -100 -97 -6 -32 -18 -78 -26 -102 -8
-25 -14 -59 -14 -76 0 -18 -9 -44 -21 -59 -17 -22 -28 -26 -74 -26 -29 0 -61
-3 -70 -6 -14 -6 -52 -76 -66 -121 -3 -9 -19 -6 -56 12 l-52 24 27 63 c28 67
29 82 16 278 -8 134 12 199 73 238 27 17 60 51 86 92 l42 64 6 121 c5 122 7
128 62 230 14 26 23 64 25 106 l4 66 182 7 c199 7 282 24 296 61 5 11 13 34
20 51 8 23 26 39 68 60 31 16 64 36 72 44 19 18 85 50 105 50 7 0 53 25 101
55 l88 55 82 0 c47 0 86 5 89 11 4 5 30 21 58 34 29 13 63 33 77 44 33 27 35
26 58 -10z m-327 -808 c16 -12 36 -54 59 -119 32 -94 34 -104 22 -147 -7 -25
-12 -94 -12 -153 0 -88 5 -120 25 -176 38 -109 37 -109 227 -119 90 -4 190 -5
222 -2 l59 6 -9 -233 c-12 -323 -11 -343 11 -368 10 -11 23 -20 29 -20 19 0
39 -43 47 -97 4 -29 21 -80 37 -113 l31 -61 -22 -41 c-21 -39 -41 -63 -98
-115 -13 -13 -53 -55 -89 -94 -36 -39 -90 -97 -121 -128 -47 -47 -61 -69 -84
-136 -27 -76 -28 -92 -35 -320 -6 -230 -8 -244 -35 -322 -18 -53 -43 -100 -70
-133 -28 -34 -46 -69 -55 -106 l-13 -54 -39 0 c-22 0 -69 -8 -104 -17 l-64
-17 -99 32 c-102 34 -171 75 -192 114 -7 13 -22 32 -34 44 -22 20 -45 98 -45
150 0 16 24 59 60 109 69 95 80 120 80 179 0 83 -60 122 -176 114 -84 -5 -113
-27 -139 -104 -23 -68 -43 -106 -95 -186 -21 -31 -43 -73 -50 -95 -29 -91 -91
-149 -185 -173 -46 -11 -54 -11 -96 9 -26 12 -51 33 -58 47 -6 15 -11 82 -11
168 0 224 -27 275 -171 321 -44 14 -95 25 -112 25 -18 0 -50 9 -72 20 -22 11
-57 20 -80 21 -44 1 -83 13 -133 44 -62 38 -31 65 76 65 77 0 86 6 96 62 5 26
13 39 29 44 38 11 57 35 57 72 0 29 -8 42 -52 81 -112 99 -120 108 -108 131 7
12 21 20 38 20 15 1 45 9 67 20 22 11 51 19 64 20 35 0 61 28 61 64 0 26 -13
44 -74 104 -69 67 -77 72 -118 72 -33 0 -59 9 -102 35 -32 19 -63 35 -68 35
-12 0 -144 85 -152 98 -3 5 5 31 18 58 13 27 31 69 40 94 19 51 42 82 73 99
34 17 103 13 153 -11 32 -15 72 -22 135 -26 81 -4 92 -2 109 16 10 12 21 43
25 71 l6 50 45 -20 c61 -28 101 -22 118 16 45 102 43 100 108 105 87 7 113 29
124 107 4 34 11 66 14 72 3 5 13 42 21 82 9 40 20 78 26 86 7 7 31 13 54 13
59 0 74 7 89 44 21 51 197 162 312 198 51 16 121 45 156 66 35 20 77 44 93 54
29 16 34 25 80 156 7 18 49 15 76 -7z m1408 -707 c23 -26 41 -51 41 -55 0 -16
75 -56 115 -63 22 -4 68 -9 102 -12 57 -6 65 -9 83 -39 45 -73 5 -177 -98
-255 -84 -64 -96 -68 -281 -84 -164 -14 -176 -16 -223 -45 -27 -17 -52 -31
-55 -31 -3 0 -21 -11 -39 -25 -18 -14 -35 -25 -38 -25 -2 0 -32 -16 -65 -36
-62 -37 -112 -90 -125 -132 -4 -12 -15 -26 -25 -32 -16 -8 -22 -1 -45 49 -14
32 -26 73 -26 90 0 40 -36 112 -60 118 -31 8 -37 42 -29 173 4 69 8 181 8 250
1 183 18 197 171 145 40 -14 87 -25 104 -25 17 0 64 -11 104 -25 135 -46 232
-28 257 45 11 32 43 59 72 60 6 0 30 -21 52 -46z m575 -34 c92 -10 112 -24 97
-63 -17 -44 -89 -133 -130 -160 -31 -21 -46 -24 -84 -20 l-47 6 0 49 c0 34 -6
59 -20 78 -17 24 -18 33 -9 61 16 47 47 71 84 64 17 -3 66 -9 109 -15z m366
-284 c67 -60 98 -76 147 -76 30 0 60 7 81 20 18 11 45 20 60 20 47 0 124 -29
141 -52 30 -45 104 -119 140 -140 20 -12 73 -55 119 -95 45 -40 86 -73 90 -73
4 0 13 -4 21 -9 12 -8 11 -17 -9 -58 -13 -26 -26 -55 -30 -63 -12 -26 -53 -40
-116 -40 -73 0 -254 -57 -290 -91 -18 -17 -24 -33 -24 -63 0 -45 13 -68 82
-139 25 -26 53 -62 62 -80 25 -55 -1 -102 -34 -61 -21 24 -42 32 -111 43 -56
9 -67 15 -100 52 -20 23 -42 59 -48 80 -6 21 -23 52 -37 69 -23 27 -31 30 -85
30 -48 0 -60 -3 -69 -20 -6 -11 -17 -20 -25 -20 -18 0 -21 71 -4 119 11 31 11
31 84 31 68 0 75 2 95 27 16 21 20 38 18 77 -3 45 -7 53 -37 73 -19 13 -43 23
-55 23 -39 0 -49 16 -54 80 -4 50 -8 63 -23 67 -15 4 -19 15 -19 48 0 50 -27
90 -67 99 -53 12 -82 28 -98 52 -15 23 -14 24 17 40 18 9 48 30 66 45 28 25
36 27 60 18 15 -6 38 -20 52 -33z m-434 -31 c13 -8 24 -29 28 -52 13 -77 28
-242 34 -380 l7 -142 38 -38 c37 -39 44 -63 31 -110 -9 -32 -23 -28 -39 11
-16 37 -53 66 -86 66 -12 0 -39 -5 -60 -11 -45 -14 -61 -5 -87 50 -9 20 -26
40 -38 45 -17 7 -23 25 -33 95 -18 123 -31 160 -67 196 -37 37 -53 89 -31 98
39 15 138 102 161 141 14 25 34 47 43 49 26 8 74 -1 99 -18z m220 -93 c28 -28
50 -42 68 -42 26 0 66 -31 66 -50 0 -6 -6 -25 -14 -44 -19 -46 -59 -60 -149
-52 -87 8 -97 18 -97 100 0 34 -3 79 -7 100 l-6 39 49 -5 c41 -4 56 -12 90
-46z m1291 -87 c67 -18 126 -19 155 -4 11 6 21 9 23 7 2 -2 -12 -41 -31 -88
-29 -74 -34 -96 -34 -174 0 -121 18 -172 109 -308 83 -123 128 -164 216 -197
31 -12 81 -38 112 -59 31 -20 64 -41 73 -46 9 -5 25 -23 35 -40 18 -29 26 -44
69 -121 9 -16 16 -36 16 -42 0 -7 30 -58 68 -114 37 -57 71 -110 77 -118 5 -9
22 -35 37 -58 15 -23 28 -44 28 -47 0 -11 72 -106 81 -106 4 0 27 -25 49 -55
22 -30 66 -74 98 -97 31 -24 71 -53 87 -65 17 -13 45 -30 63 -38 18 -9 62 -36
97 -60 158 -111 255 -145 411 -145 77 0 128 5 163 17 51 16 53 16 73 -4 32
-33 18 -50 -46 -55 -36 -3 -63 -12 -77 -24 -21 -18 -21 -24 -15 -164 8 -171
-2 -212 -64 -273 -31 -29 -40 -45 -40 -72 0 -38 39 -91 77 -106 13 -5 30 -25
38 -44 9 -20 37 -51 68 -75 44 -32 57 -50 72 -93 32 -94 8 -121 -128 -147 -27
-6 -60 -19 -74 -29 -31 -25 -125 -61 -158 -61 -15 0 -42 -15 -64 -36 -36 -31
-40 -41 -43 -87 l-3 -52 -60 -6 c-33 -4 -72 -11 -86 -17 -29 -12 -69 -57 -69
-78 0 -8 -9 -14 -19 -14 -11 0 -25 -2 -33 -5 -7 -3 -40 13 -73 35 -46 30 -70
40 -102 40 -62 0 -77 -27 -68 -119 6 -64 5 -70 -14 -76 -11 -3 -26 -3 -32 1
-17 10 -39 71 -33 89 4 9 -2 34 -11 56 -15 31 -29 45 -69 64 -28 12 -75 44
-104 69 -52 45 -55 46 -122 46 l-69 0 -3 42 c-3 38 -8 45 -39 63 -20 11 -54
39 -74 63 -21 24 -51 50 -67 58 -15 8 -28 22 -28 32 0 31 -39 81 -78 101 -41
21 -52 37 -52 76 0 31 -50 88 -94 109 -19 9 -57 16 -84 16 -48 0 -54 3 -101
51 l-49 50 15 37 c8 20 19 41 24 46 5 6 9 28 9 51 0 45 -32 97 -110 176 -60
62 -77 69 -157 69 -59 0 -74 -4 -113 -31 -87 -59 -138 -80 -175 -73 -30 5 -35
10 -45 55 -9 36 -9 57 -1 80 19 56 14 125 -14 169 -14 22 -25 43 -25 47 0 5
-18 31 -40 58 -22 28 -40 55 -40 61 0 6 -8 22 -18 35 -11 13 -24 39 -30 57
-11 32 -11 32 22 32 19 0 39 -7 47 -16 42 -50 147 -69 191 -34 27 21 101 49
133 51 70 3 109 72 87 155 -7 24 -12 65 -12 91 0 61 -31 123 -91 183 -46 47
-49 52 -49 103 0 45 -4 57 -27 79 -16 15 -39 29 -53 33 -34 9 -68 38 -80 70
-8 21 -6 42 10 95 35 116 25 150 -71 251 -65 69 -78 94 -57 116 28 27 190 75
281 82 77 7 91 11 117 36 17 16 30 36 30 45 0 9 23 51 50 95 31 49 50 90 50
109 0 33 65 136 86 136 7 0 39 -7 71 -15z m-1872 -51 c4 -21 20 -50 40 -70 36
-36 47 -65 65 -180 10 -66 10 -74 -9 -105 -16 -25 -21 -51 -21 -99 0 -71 1
-68 -98 -210 -24 -33 -52 -86 -62 -116 -11 -30 -33 -73 -49 -97 l-31 -42 1
-142 c0 -78 4 -154 8 -170 5 -20 26 -41 72 -70 35 -24 85 -65 111 -93 57 -62
98 -80 183 -80 64 0 67 -1 104 -40 31 -32 45 -40 74 -40 69 0 138 -20 149 -44
17 -39 -13 -115 -69 -174 -44 -46 -56 -53 -104 -59 -48 -7 -56 -12 -71 -42
-22 -45 -47 -60 -114 -71 -33 -6 -66 -18 -79 -30 -12 -11 -32 -20 -44 -20 -31
0 -85 -34 -105 -65 -13 -19 -25 -25 -53 -25 l-37 0 28 29 c26 27 28 35 24 82
-7 67 -31 89 -98 89 -41 0 -52 -4 -69 -26 -12 -15 -21 -37 -21 -50 0 -43 -57
-58 -88 -23 -30 31 -98 23 -126 -14 -18 -24 -21 -45 -23 -130 -1 -56 -3 -105
-3 -109 0 -13 -53 -9 -108 7 -39 12 -52 21 -52 35 0 27 -38 50 -84 50 -32 0
-44 -6 -70 -36 -24 -27 -41 -37 -73 -41 -42 -5 -43 -5 -43 22 0 35 -26 65 -55
65 -32 0 -45 19 -45 66 0 34 -5 47 -26 63 -15 12 -38 21 -53 21 -34 0 -45 8
-78 56 -26 39 -101 110 -150 144 -21 14 -21 18 -11 58 7 23 31 65 53 92 27 33
52 80 70 133 27 78 29 92 35 322 7 229 8 244 35 320 23 65 38 89 84 135 31 31
68 69 82 86 14 16 35 38 47 49 105 95 202 219 202 258 0 7 14 20 30 29 17 10
37 32 45 50 20 47 53 81 113 117 29 17 55 31 58 31 3 0 20 11 38 25 18 14 36
25 39 25 3 0 28 14 55 31 45 27 64 32 179 44 202 19 190 21 198 -21z m778
-181 c7 -8 35 -19 62 -26 58 -14 74 -35 57 -71 -11 -25 -16 -26 -87 -26 -70 0
-76 -2 -92 -27 -27 -40 -31 -177 -8 -204 24 -26 86 -26 110 1 22 25 57 26 77
3 8 -10 22 -38 31 -63 10 -25 36 -66 60 -92 38 -44 47 -48 106 -57 35 -6 75
-18 88 -28 14 -10 35 -25 47 -33 16 -11 20 -23 18 -50 -8 -77 36 -139 114
-164 36 -11 51 -39 56 -100 5 -55 8 -62 52 -103 57 -52 85 -111 86 -175 0 -26
5 -59 10 -73 6 -15 8 -36 5 -48 -6 -22 -45 -47 -74 -47 -27 0 -101 -30 -131
-52 -29 -21 -30 -21 -69 -3 -22 10 -48 26 -57 36 -13 15 -31 19 -79 19 -69 0
-85 -10 -85 -55 0 -33 31 -108 49 -119 6 -4 11 -14 11 -23 0 -9 15 -34 34 -57
18 -23 48 -69 67 -103 32 -59 33 -64 21 -108 -15 -56 -15 -103 -1 -160 14 -57
26 -66 97 -72 63 -6 103 10 202 76 35 24 56 31 93 31 46 0 50 -2 119 -72 91
-94 95 -106 63 -173 -27 -59 -56 -75 -131 -75 -33 0 -52 -8 -88 -35 -58 -44
-106 -47 -162 -9 -52 36 -111 42 -144 16 -21 -17 -24 -28 -25 -82 0 -64 9 -79
71 -116 24 -15 10 -43 -32 -63 -16 -7 -49 -30 -73 -50 -42 -34 -50 -36 -136
-41 -89 -5 -93 -6 -134 -42 -22 -21 -47 -38 -55 -38 -7 0 -25 -15 -40 -34 -21
-28 -33 -35 -73 -38 -27 -3 -53 -1 -60 4 -25 20 -63 161 -63 236 0 65 -4 81
-34 135 -19 34 -42 82 -52 107 -23 59 -71 120 -95 120 -22 0 -42 29 -59 85
-14 44 -53 92 -86 105 -15 6 -28 27 -39 62 -25 76 -48 98 -104 98 -25 1 -56 6
-69 14 -20 11 -21 14 -9 25 8 6 41 16 72 21 64 10 119 46 129 83 5 21 14 25
58 30 46 6 57 12 110 66 90 91 117 210 60 264 -27 26 -53 33 -173 52 -53 8
-65 37 -44 102 28 87 110 141 214 142 36 1 65 8 88 22 30 19 34 26 31 57 -3
33 -9 40 -63 73 -33 20 -62 44 -63 53 -6 29 7 66 23 66 25 0 48 46 41 84 -6
34 -25 54 -109 119 -26 19 -41 42 -53 81 -16 52 -16 56 0 81 10 15 32 33 50
40 36 15 46 44 46 137 0 40 -6 53 -40 93 l-40 46 0 103 0 103 93 -5 c97 -5
136 5 168 44 13 15 15 11 21 -46 4 -35 13 -70 21 -77z m-598 -227 c8 -19 27
-44 42 -56 28 -22 53 -23 148 -8 13 2 23 -6 32 -23 7 -15 20 -32 28 -39 13
-11 12 -16 -10 -42 -51 -60 -20 -187 60 -253 24 -19 47 -35 51 -35 11 0 33
-34 34 -52 0 -10 -6 -18 -14 -18 -27 0 -46 -42 -46 -100 0 -62 12 -79 83 -115
20 -11 37 -23 37 -27 0 -15 -40 -28 -86 -28 -26 0 -65 -5 -86 -12 -57 -17
-135 -90 -148 -138 -13 -50 -42 -70 -100 -70 -54 0 -86 18 -165 94 -33 32 -79
69 -102 83 -24 14 -44 32 -44 41 -1 10 -3 71 -5 137 -3 119 -3 120 27 162 16
24 38 67 49 98 18 51 74 146 92 153 4 2 21 27 38 56 24 43 30 65 30 114 0 60
15 112 32 112 5 0 15 -15 23 -34z m-3059 -709 c39 -12 82 -30 97 -40 42 -27
57 -97 57 -260 0 -172 9 -198 84 -233 138 -64 311 18 363 172 8 27 21 56 28
64 36 44 106 175 120 225 15 49 22 59 51 71 47 19 93 17 132 -6 52 -32 43 -69
-50 -197 l-61 -85 6 -77 c6 -93 25 -141 77 -195 22 -22 40 -44 40 -47 0 -16
85 -62 165 -89 99 -34 164 -38 239 -15 62 19 99 19 135 1 50 -26 115 -86 151
-139 30 -44 42 -54 82 -64 65 -16 68 -19 68 -67 0 -48 27 -82 70 -88 22 -3 25
-7 23 -41 -3 -40 -27 -93 -53 -114 -36 -31 -165 -103 -216 -122 -31 -12 -81
-39 -112 -60 -32 -21 -87 -46 -125 -56 -100 -27 -110 -43 -103 -170 3 -55 6
-128 5 -162 0 -57 2 -63 30 -84 17 -13 31 -31 31 -41 0 -31 34 -55 121 -83 98
-32 109 -39 109 -70 0 -17 -8 -25 -27 -29 -16 -4 -46 -20 -68 -35 -38 -27 -48
-29 -158 -32 -112 -4 -120 -6 -139 -29 -17 -22 -19 -36 -16 -138 l3 -113 55
-52 c31 -29 70 -60 88 -69 41 -22 43 -54 5 -71 -16 -7 -48 -25 -72 -40 -24
-16 -59 -31 -77 -34 -42 -7 -69 -39 -77 -91 -8 -49 -50 -89 -99 -94 -21 -2
-38 0 -38 6 0 5 -7 18 -17 28 -20 22 -85 24 -103 3 -16 -19 -34 -19 -76 1 -59
28 -73 137 -28 218 34 61 30 115 -15 179 -18 26 -31 58 -31 76 0 16 -5 41 -11
55 -9 20 -7 36 15 93 31 81 34 143 9 165 -26 22 -80 38 -128 38 -33 0 -47 -6
-72 -32 -43 -45 -54 -77 -63 -190 -10 -119 -34 -176 -96 -221 -24 -18 -66 -67
-95 -111 -28 -43 -65 -86 -81 -95 -16 -9 -40 -37 -54 -63 -23 -46 -57 -69 -76
-50 -5 5 -17 23 -26 40 -29 51 -120 158 -157 183 -35 24 -62 70 -85 144 -21
67 -38 85 -79 85 -20 0 -74 14 -121 30 -47 16 -100 30 -118 30 -80 0 -132 -50
-132 -127 0 -47 -25 -115 -62 -170 -21 -31 -39 -46 -68 -54 -40 -12 -53 -10
-100 20 -8 6 -35 16 -59 23 -37 11 -52 23 -83 68 -20 30 -53 70 -73 88 -30 28
-42 32 -88 32 -57 0 -83 -13 -89 -45 -6 -38 -33 -23 -36 21 -2 33 -11 49 -47
83 -24 23 -59 48 -77 55 -41 17 -59 37 -92 100 -35 66 -35 127 2 198 58 115
63 140 37 174 -24 32 -17 59 25 97 38 33 40 39 40 91 0 62 16 42 -173 217 -48
45 -59 61 -64 95 -5 39 -3 43 48 92 l52 50 7 99 c7 94 16 129 45 163 7 8 18
32 23 53 24 89 124 202 238 272 18 11 50 36 71 55 102 93 194 140 433 222 155
53 187 61 278 67 88 5 106 9 120 26 10 11 40 35 68 54 28 18 65 52 82 77 18
24 38 44 45 44 7 0 28 16 47 35 40 41 52 42 146 12z m2739 -851 c8 -25 6 -31
-18 -50 -20 -16 -27 -31 -27 -57 0 -49 15 -59 86 -59 56 0 65 3 86 28 45 53
98 79 98 47 0 -22 53 -45 104 -45 50 0 53 -3 81 -79 17 -45 28 -60 64 -80 37
-22 46 -35 63 -86 25 -72 32 -82 76 -103 35 -17 52 -43 97 -142 13 -30 34 -71
45 -90 15 -26 20 -53 20 -111 0 -78 34 -204 64 -238 7 -9 16 -32 19 -51 3 -19
7 -44 9 -55 3 -18 -2 -20 -54 -17 -76 5 -124 -12 -144 -49 -16 -32 -68 -69
-96 -69 -10 0 -51 -29 -90 -64 -77 -68 -93 -84 -162 -156 -23 -25 -57 -54 -76
-65 -19 -11 -46 -41 -60 -66 -14 -26 -42 -62 -62 -82 -35 -32 -38 -39 -38 -89
0 -70 24 -95 103 -108 93 -15 118 -39 95 -88 -9 -19 -27 -30 -60 -40 -39 -11
-55 -23 -91 -70 -85 -111 -90 -126 -83 -202 4 -43 2 -71 -4 -75 -6 -4 -27 -32
-47 -63 -28 -44 -38 -70 -41 -114 l-4 -58 -42 0 c-59 0 -103 15 -171 56 -33
19 -80 39 -105 44 -58 11 -79 19 -113 43 -20 14 -42 18 -80 17 -97 -4 -106 3
-67 53 13 16 20 40 20 67 0 36 -6 48 -36 76 -19 19 -39 34 -44 34 -5 0 -17 14
-25 31 -15 27 -15 33 -1 54 8 12 27 26 43 29 15 4 40 19 56 34 23 22 27 34 27
78 0 49 -4 57 -49 109 -27 31 -52 68 -56 83 -3 15 -22 50 -40 77 -62 92 -110
122 -208 135 -117 15 -160 27 -179 52 -26 34 -33 86 -17 138 7 25 13 70 12
100 0 30 -1 80 -2 111 0 71 -15 85 -134 125 -81 27 -92 33 -99 59 -4 16 -18
37 -30 47 -19 14 -23 27 -25 80 -1 35 -5 93 -8 130 -9 89 -1 101 82 123 39 11
93 35 127 58 33 22 83 48 110 57 28 9 72 29 99 45 138 86 142 90 167 142 24
50 26 52 67 53 56 0 88 14 122 50 27 30 61 33 61 6 0 -21 43 -54 85 -65 22 -6
68 -11 103 -11 58 0 63 2 72 26 6 15 8 59 4 103 -5 58 -3 85 9 114 18 42 29
45 56 18 46 -46 155 -29 167 27 12 59 23 73 51 70 20 -2 30 -11 38 -32z m1980
-580 c39 -51 98 -86 145 -86 80 0 150 -51 150 -110 0 -30 34 -80 55 -80 24 0
58 -36 74 -81 11 -28 26 -49 43 -57 15 -7 48 -37 73 -66 25 -30 57 -57 70 -60
33 -8 32 -30 -5 -146 -16 -51 -30 -98 -30 -104 0 -6 -25 -33 -55 -61 -52 -48
-55 -54 -55 -98 0 -28 8 -64 20 -87 22 -43 26 -95 9 -106 -6 -3 -44 -10 -85
-15 -41 -4 -79 -11 -84 -14 -14 -9 -12 -86 2 -140 15 -57 7 -65 -73 -65 -30 0
-60 -5 -67 -12 -29 -29 -3 -140 36 -152 10 -3 24 -22 31 -42 8 -23 29 -47 57
-67 41 -29 43 -32 28 -49 -9 -9 -26 -20 -38 -24 -11 -4 -53 -22 -93 -40 -40
-19 -75 -34 -77 -34 -16 0 -124 -82 -134 -102 -8 -14 -27 -33 -44 -42 -46 -27
-98 -76 -98 -92 0 -18 -36 -54 -55 -54 -8 0 -31 18 -51 40 -31 33 -44 40 -76
40 -23 0 -45 -7 -56 -18 -31 -31 -66 -114 -73 -175 -4 -32 -15 -67 -24 -77
-10 -11 -46 -29 -81 -40 -56 -19 -67 -27 -89 -64 -30 -51 -32 -98 -6 -149 10
-20 22 -54 26 -74 4 -21 13 -52 21 -69 14 -28 13 -36 0 -68 -17 -42 -38 -46
-89 -16 -54 32 -177 70 -226 70 -24 0 -78 -12 -118 -26 l-73 -26 -23 28 c-26
35 -144 147 -161 154 -7 3 -30 25 -51 48 -68 77 -115 102 -185 102 -41 0 -72
-6 -92 -17 -30 -18 -30 -18 -46 7 -35 54 -79 85 -152 109 -122 39 -155 93
-148 242 4 86 20 127 81 196 17 19 19 32 14 91 -6 65 -5 70 26 117 67 101 80
116 122 126 65 16 85 37 92 96 4 40 2 58 -11 78 -19 29 -75 55 -120 55 -40 0
-76 25 -76 52 0 12 20 43 45 69 25 26 45 54 45 61 0 18 51 69 100 98 22 13 55
46 72 73 17 26 45 55 62 64 17 8 49 35 71 59 28 30 57 49 95 62 42 14 61 27
81 57 33 48 49 55 120 48 93 -9 126 27 95 102 -9 21 -14 40 -12 42 2 2 29 7
61 10 49 5 60 11 83 39 15 19 33 34 39 34 7 0 32 17 54 38 41 36 45 37 135 42
87 5 95 8 131 38 21 18 52 39 69 47 43 20 84 71 84 105 0 26 -23 53 -73 85
-16 10 -20 24 -18 61 2 36 30 37 79 4 39 -26 54 -30 114 -30 63 0 73 3 110 32
30 25 53 34 96 39 32 3 62 7 69 8 7 0 24 -14 38 -33z m832 -678 c52 -45 94
-74 121 -82 36 -12 52 -35 52 -76 0 -45 15 -85 44 -117 24 -28 90 -31 125 -7
20 15 22 23 21 88 -3 116 -4 115 79 60 58 -39 116 -53 150 -35 17 9 21 9 21
-2 0 -8 -7 -20 -15 -27 -24 -20 -18 -63 14 -94 26 -25 34 -27 99 -25 39 2 74
0 78 -4 4 -4 10 -40 14 -79 3 -40 17 -106 30 -147 30 -89 62 -115 151 -123 37
-3 67 -12 89 -28 19 -13 52 -27 74 -30 l41 -5 6 -75 c3 -41 10 -85 17 -96 19
-35 71 -74 98 -74 17 0 38 -14 62 -41 20 -23 54 -50 74 -60 20 -10 44 -29 52
-41 14 -20 14 -25 1 -45 -8 -12 -15 -37 -15 -56 0 -37 32 -74 85 -98 39 -18
64 -71 65 -136 0 -46 -4 -58 -33 -90 -33 -38 -57 -89 -57 -124 0 -28 -69 -89
-100 -89 -40 0 -151 37 -175 59 -11 10 -48 28 -83 41 -51 18 -76 22 -140 18
-84 -5 -121 -22 -140 -63 -10 -21 -18 -25 -55 -25 -76 0 -89 -36 -62 -168 7
-30 4 -36 -34 -69 l-42 -35 2 -76 2 -76 -47 -40 c-34 -30 -46 -48 -46 -69 0
-15 -5 -35 -11 -45 -8 -12 -9 -36 -5 -65 6 -37 15 -53 43 -76 19 -16 48 -31
64 -35 21 -4 30 -13 34 -33 17 -80 21 -88 53 -105 19 -9 41 -23 51 -32 27 -25
110 -46 181 -46 81 0 116 -16 112 -50 -5 -36 -29 -50 -85 -50 -68 0 -117 -30
-117 -71 0 -36 -13 -64 -48 -101 -37 -40 -27 -94 28 -154 l41 -44 -3 -83 -3
-82 -77 -3 c-70 -3 -79 -1 -95 20 -10 12 -39 42 -64 67 -26 26 -50 58 -53 74
-4 15 -15 36 -25 46 -11 11 -24 29 -31 40 -9 18 -20 21 -71 21 -33 0 -76 -7
-97 -16 -25 -10 -51 -13 -79 -9 -24 3 -43 7 -43 8 0 2 9 20 20 42 25 48 26
121 3 147 -32 35 -147 19 -184 -26 -16 -19 -18 -19 -43 -3 -47 31 -100 22
-179 -30 -40 -27 -76 -50 -82 -52 -5 -2 -24 -15 -41 -27 -17 -13 -45 -27 -61
-30 -26 -5 -34 -2 -49 20 -15 24 -15 32 -4 67 12 37 12 42 -7 61 -11 11 -51
30 -88 42 -57 19 -71 28 -87 56 -10 19 -18 47 -18 62 0 15 -5 30 -10 33 -7 4
-8 30 -4 70 6 60 5 65 -21 91 -23 23 -26 31 -16 46 6 10 11 42 11 72 0 54 -1
55 -50 90 -76 55 -150 46 -200 -24 -20 -29 -114 -80 -146 -80 -24 0 -87 -29
-111 -52 -18 -17 -39 -22 -104 -26 -80 -5 -82 -5 -126 -48 -69 -67 -107 -70
-143 -12 -32 53 -35 107 -10 185 13 37 27 74 33 81 13 17 0 109 -21 144 -14
23 -14 32 -4 46 46 63 51 112 22 190 -11 29 -20 60 -20 69 0 9 -9 36 -21 59
-18 39 -19 45 -5 72 19 37 32 47 81 62 91 29 125 68 125 147 0 37 41 133 66
154 13 11 21 7 54 -29 35 -37 44 -42 82 -42 57 1 90 20 103 61 8 24 30 47 69
75 32 22 65 52 73 65 13 22 84 74 118 88 6 2 43 19 83 37 41 19 77 34 82 34 5
0 25 14 45 31 52 46 48 77 -15 130 -27 23 -50 49 -50 56 0 8 -18 32 -40 54
-22 22 -40 49 -40 59 0 18 7 20 58 20 79 0 102 17 102 77 0 25 -5 63 -12 84
-6 22 -8 42 -5 45 3 3 38 10 77 14 84 9 107 26 116 85 5 35 1 55 -20 99 -14
30 -26 61 -26 70 0 8 25 38 55 67 30 29 55 57 55 62 0 26 42 148 56 162 10 9
34 15 65 15 41 0 55 -5 86 -32z m-3983 -66 c4 -10 -1 -38 -9 -62 -8 -23 -15
-70 -15 -104 0 -51 5 -70 29 -108 32 -50 57 -60 197 -78 43 -6 90 -19 113 -32
38 -22 95 -100 122 -167 7 -19 32 -57 56 -83 61 -69 54 -115 -20 -133 -40 -11
-77 -59 -77 -103 0 -37 31 -102 49 -102 17 0 71 -51 71 -67 0 -8 -9 -26 -20
-40 -30 -39 -27 -96 8 -123 23 -19 35 -21 83 -16 46 4 62 2 80 -13 26 -20 72
-36 133 -46 22 -4 60 -21 85 -38 62 -42 105 -56 179 -57 l62 0 0 -39 c0 -57
14 -86 67 -139 37 -37 63 -52 113 -67 45 -14 76 -31 101 -56 50 -50 54 -74 19
-99 -16 -11 -34 -37 -41 -58 -18 -57 -26 -62 -90 -62 -53 0 -59 -2 -80 -31
-12 -17 -32 -41 -45 -54 -36 -36 -32 -83 12 -140 43 -57 54 -84 54 -137 0 -51
39 -90 107 -108 101 -26 113 -32 128 -60 8 -16 15 -38 15 -50 0 -12 15 -34 32
-51 47 -42 31 -62 -53 -70 -35 -3 -76 -12 -91 -19 -25 -12 -78 -79 -78 -99 0
-4 -29 -53 -65 -109 -66 -100 -91 -157 -126 -287 -11 -38 -24 -79 -29 -90 -9
-20 -17 -74 -26 -175 -10 -106 -4 -100 -94 -100 -68 0 -84 -4 -116 -25 -25
-17 -50 -25 -79 -25 -54 0 -81 -29 -95 -100 -17 -89 -49 -125 -201 -230 -48
-33 -96 -74 -108 -94 -22 -35 -90 -76 -128 -76 -30 0 -86 25 -107 49 -14 16
-31 21 -67 21 -59 0 -69 -14 -69 -99 0 -68 -12 -87 -64 -97 -43 -7 -66 0 -100
31 -22 21 -25 30 -20 62 12 75 -48 112 -135 82 -17 -6 -43 -8 -56 -5 -21 5
-25 12 -25 45 0 48 -23 77 -75 94 -29 10 -56 33 -100 86 -33 40 -86 92 -118
116 -32 23 -65 53 -74 65 -14 20 -13 23 6 44 14 15 21 35 21 64 0 47 -15 62
-88 83 -51 15 -75 53 -46 74 26 19 32 120 9 145 -25 28 -100 28 -115 0 -18
-33 -39 -24 -46 20 -4 22 -13 45 -20 51 -17 14 -18 51 -2 67 8 8 56 12 150 12
134 0 140 1 163 25 40 39 34 93 -15 160 -22 30 -54 62 -70 70 -21 11 -31 25
-36 53 -4 20 -15 48 -25 61 -24 30 -33 80 -25 135 5 33 17 54 51 89 34 33 45
53 45 75 0 17 -5 34 -11 38 -6 3 -17 22 -25 40 -13 31 -12 37 6 71 11 21 20
49 20 63 0 28 62 121 88 132 9 4 40 7 69 7 71 1 94 25 127 127 21 66 26 100
26 186 0 118 -8 134 -82 158 -29 9 -38 17 -38 35 0 12 7 28 16 35 25 21 37 51
46 110 5 30 14 89 20 130 6 41 11 115 10 165 -1 89 -2 90 -37 123 -39 37 -42
49 -20 78 8 10 15 31 15 47 0 25 3 27 38 27 31 0 45 7 75 38 21 22 39 52 43
72 10 54 21 67 59 73 19 3 55 19 79 35 24 17 53 33 64 36 38 12 53 41 50 92
-3 48 -4 49 -78 100 -41 28 -81 62 -87 75 -15 28 -17 167 -3 189 7 12 37 16
132 19 119 3 124 4 156 32 38 33 58 37 66 11z"/>
<path d="M4531 9448 c-7 -35 -15 -73 -18 -85 -4 -18 -1 -23 15 -23 15 0 22 8
24 27 2 23 9 29 42 35 48 10 76 33 76 63 0 33 -20 45 -76 45 l-51 0 -12 -62z
m103 24 c8 -14 -8 -30 -37 -37 -24 -6 -27 -5 -27 19 0 22 4 26 29 26 17 0 32
-4 35 -8z"/>
<path d="M4687 9428 c-37 -68 -42 -84 -29 -87 9 -2 23 6 30 18 19 28 72 29 79
1 6 -24 33 -27 33 -4 0 8 -5 46 -11 85 -11 62 -14 69 -35 69 -18 0 -31 -17
-67 -82z m67 10 c5 -24 3 -28 -14 -28 -23 0 -24 1 -8 35 13 29 13 29 22 -7z"/>
<path d="M4855 9488 c-36 -158 -38 -150 37 -146 76 4 96 28 23 28 l-48 0 6 38
c4 20 9 52 13 70 5 25 3 32 -10 32 -8 0 -18 -10 -21 -22z"/>
<path d="M4992 9463 c-25 -115 -25 -123 -8 -123 8 0 18 10 21 23 29 131 31
147 11 147 -9 0 -18 -18 -24 -47z"/>
<path d="M5061 9448 c-7 -35 -15 -73 -18 -85 -5 -22 -3 -23 61 -23 52 0 66 3
66 15 0 11 -12 15 -46 15 -38 0 -45 3 -40 18 2 9 7 33 11 52 4 19 9 43 11 53
4 12 0 17 -14 17 -16 0 -22 -11 -31 -62z"/>
<path d="M5215 9488 c-22 -97 -22 -107 -8 -127 10 -15 25 -21 52 -21 56 0 67
16 95 143 5 22 3 27 -13 27 -15 0 -21 -12 -30 -59 -12 -63 -29 -85 -58 -79
-20 4 -22 25 -9 96 6 35 5 42 -8 42 -9 0 -18 -10 -21 -22z"/>
<path d="M5381 9448 c-7 -35 -15 -73 -18 -85 -5 -22 -3 -23 61 -23 52 0 66 3
66 15 0 11 -12 15 -46 15 -38 0 -45 3 -40 18 2 9 7 33 11 52 4 19 9 43 11 53
4 12 0 17 -14 17 -16 0 -22 -11 -31 -62z"/>
<path d="M5545 9434 c-51 -97 -50 -94 -27 -94 12 0 23 9 27 20 5 15 15 20 41
20 27 0 34 -4 34 -20 0 -14 7 -20 21 -20 17 0 20 5 15 28 -3 15 -8 45 -12 67
-10 66 -14 75 -37 75 -17 0 -31 -17 -62 -76z m65 1 c0 -18 -5 -25 -20 -25 -17
0 -18 3 -8 25 6 14 15 25 20 25 4 0 8 -11 8 -25z"/>
<path d="M2960 9316 c0 -10 13 -16 36 -18 l36 -3 -39 -45 c-22 -25 -45 -55
-52 -67 -12 -23 -11 -23 59 -23 54 0 70 3 70 14 0 10 -13 16 -40 18 l-40 3 50
55 c27 30 49 61 50 68 0 8 -19 12 -65 12 -50 0 -65 -3 -65 -14z"/>
<path d="M3115 9308 c-35 -157 -38 -148 40 -148 51 0 65 3 65 15 0 11 -12 15
-45 15 -38 0 -45 3 -45 19 0 17 8 20 47 23 64 4 71 28 8 28 -39 0 -46 3 -43
18 2 13 15 18 50 20 29 2 48 8 52 18 4 11 -7 14 -59 14 -59 0 -65 -2 -70 -22z"/>
<path d="M3275 9318 c-2 -7 -10 -46 -18 -85 -14 -69 -13 -73 4 -73 13 0 19 11
25 45 3 25 10 45 15 45 5 0 9 -20 9 -45 0 -36 3 -45 18 -45 12 0 25 18 41 60
27 68 34 73 21 15 -13 -56 -12 -75 4 -75 14 0 17 11 42 143 5 24 3 27 -24 27
-26 0 -31 -6 -46 -45 -10 -25 -22 -45 -27 -45 -5 0 -9 20 -9 45 0 41 -2 45
-25 45 -14 0 -27 -6 -30 -12z"/>
<path d="M3475 9308 c-22 -97 -22 -107 -8 -127 10 -15 25 -21 52 -21 56 0 67
16 95 143 5 22 3 27 -13 27 -15 0 -21 -12 -30 -59 -12 -63 -29 -85 -58 -79
-20 4 -22 25 -9 96 6 35 5 42 -8 42 -9 0 -18 -10 -21 -22z"/>
<path d="M3641 9268 c-7 -35 -15 -73 -18 -85 -4 -18 -1 -23 14 -23 16 0 21 10
29 58 l9 57 21 -55 c15 -38 27 -56 41 -58 17 -3 21 6 33 70 7 40 15 79 17 86
3 7 -3 12 -15 12 -17 0 -22 -9 -28 -45 -3 -25 -10 -45 -14 -45 -5 0 -15 19
-22 43 -10 29 -21 43 -35 45 -17 3 -22 -5 -32 -60z"/>
<path d="M2997 7594 c7 -18 37 -18 51 -1 9 10 4 13 -23 14 -25 1 -32 -3 -28
-13z"/>
<path d="M2464 7560 c-46 -18 -37 -68 16 -95 17 -9 30 -22 30 -30 0 -18 -41
-20 -57 -4 -6 6 -18 9 -27 7 -15 -3 -15 -5 -1 -25 31 -45 125 -22 125 30 0 9
-18 28 -40 42 -22 14 -40 30 -40 35 0 13 47 13 55 0 7 -12 35 -13 35 -2 0 33
-58 58 -96 42z"/>
<path d="M2980 7558 c-14 -7 -33 -30 -43 -51 -16 -31 -17 -43 -7 -71 12 -37
26 -46 69 -46 25 0 71 35 71 53 0 13 -27 7 -40 -9 -8 -8 -25 -14 -39 -12 -53
6 -30 108 24 108 13 0 27 -4 30 -10 9 -15 35 -12 35 4 0 32 -61 53 -100 34z"/>
<path d="M2591 7503 c-6 -31 -11 -62 -11 -69 0 -38 76 -59 114 -31 15 11 45
106 46 145 0 24 -30 11 -36 -15 -21 -101 -39 -125 -79 -110 -13 6 -12 16 10
115 4 17 1 22 -13 22 -15 0 -22 -12 -31 -57z"/>
<path d="M2775 7538 c-30 -132 -31 -148 -10 -148 8 0 17 14 21 36 5 28 10 35
28 32 13 -2 27 -16 35 -35 9 -20 22 -33 33 -33 17 0 17 2 3 36 -14 35 -14 38
5 51 15 11 20 24 18 46 -3 32 -3 32 -65 35 -58 3 -63 1 -68 -20z m105 -16 c0
-17 -25 -32 -52 -32 -26 0 -37 17 -21 33 9 10 73 9 73 -1z"/>
<path d="M3112 7513 c-25 -115 -25 -123 -8 -123 8 0 18 10 21 23 29 131 31
147 11 147 -9 0 -18 -18 -24 -47z"/>
<path d="M3185 7538 c-30 -132 -31 -148 -10 -148 8 0 17 14 21 38 12 66 20 69
39 13 23 -69 49 -71 63 -3 25 114 25 122 8 122 -9 0 -18 -12 -22 -27 -17 -80
-19 -81 -39 -25 -21 56 -50 71 -60 30z"/>
<path d="M4246 8083 c-14 -51 -17 -83 -7 -83 6 0 14 15 19 33 l8 32 12 -32
c12 -36 28 -43 36 -15 14 50 17 82 7 82 -6 0 -14 -15 -19 -32 l-8 -33 -12 33
c-12 35 -28 42 -36 15z"/>
<path d="M4350 8080 c-6 -12 -10 -33 -8 -48 3 -24 7 -27 38 -27 27 0 37 6 50
27 20 36 5 62 -38 66 -23 2 -34 -2 -42 -18z m65 -10 c10 -16 -14 -50 -35 -50
-14 0 -20 7 -20 23 0 13 3 27 7 30 10 10 41 8 48 -3z"/>
<path d="M4455 8058 c4 -24 9 -46 12 -50 11 -19 31 -5 48 32 26 58 38 60 30 6
-10 -63 10 -60 22 4 10 50 10 50 -16 50 -19 0 -32 -10 -48 -38 -18 -30 -22
-33 -23 -15 0 29 -10 53 -22 53 -6 0 -7 -17 -3 -42z"/>
<path d="M4090 7918 c0 -7 -3 -30 -6 -50 -7 -38 -7 -38 28 -38 43 0 55 14 54
60 -1 33 -3 35 -38 38 -26 2 -38 -1 -38 -10z m55 -18 c-3 -5 -13 -10 -21 -10
-8 0 -14 5 -14 10 0 6 9 10 21 10 11 0 17 -4 14 -10z m-5 -40 c0 -5 -9 -10
-20 -10 -11 0 -20 5 -20 10 0 6 9 10 20 10 11 0 20 -4 20 -10z"/>
<path d="M4190 7918 c0 -7 -3 -30 -6 -50 -7 -38 -7 -38 29 -38 20 0 39 5 42
10 4 6 -7 10 -24 10 -17 0 -31 5 -31 10 0 6 11 10 24 10 14 0 28 5 31 10 4 6
-5 10 -19 10 -14 0 -26 5 -26 10 0 6 14 10 30 10 17 0 30 5 30 10 0 6 -18 10
-40 10 -25 0 -40 -5 -40 -12z"/>
<path d="M4293 7918 c-35 -45 -19 -91 30 -86 65 6 72 98 8 98 -16 0 -33 -6
-38 -12z m55 -35 c-2 -20 -9 -29 -25 -31 -18 -3 -23 1 -23 21 0 29 7 37 32 37
15 0 19 -6 16 -27z"/>
<path d="M4403 7918 c-33 -43 -19 -88 27 -88 19 0 33 7 40 19 14 28 13 31 -15
31 -26 0 -34 -15 -12 -23 6 -3 2 -6 -11 -6 -20 -1 -23 3 -20 27 3 24 7 27 36
25 21 -1 32 3 29 10 -5 17 -62 20 -74 5z"/>
<path d="M4507 7923 c-11 -19 -18 -93 -9 -93 5 0 12 9 15 20 3 11 10 20 17 20
7 0 14 -9 17 -20 4 -14 14 -20 34 -20 16 0 29 5 29 10 0 14 33 13 48 -2 18
-18 21 -8 15 45 -7 62 -31 63 -61 2 -12 -25 -26 -45 -31 -45 -16 0 -19 25 -6
44 20 27 7 46 -30 46 -19 0 -36 -3 -38 -7z m53 -23 c0 -5 -9 -10 -20 -10 -11
0 -20 5 -20 10 0 6 9 10 20 10 11 0 20 -4 20 -10z m86 -27 c-10 -10 -19 5 -10
18 6 11 8 11 12 0 2 -7 1 -15 -2 -18z"/>
<path d="M4706 7913 c-2 -10 -8 -33 -11 -51 l-7 -33 38 3 c31 2 42 9 52 30 10
21 10 33 2 48 -14 26 -66 28 -74 3z m52 -30 c-4 -36 -38 -45 -38 -10 0 27 7
37 27 37 10 0 13 -9 11 -27z"/>
<path d="M5155 8174 c-15 -11 -17 -17 -7 -23 9 -5 11 -17 6 -34 -7 -30 11 -39
20 -9 12 45 17 82 9 82 -4 0 -17 -7 -28 -16z"/>
<path d="M5205 8100 c-3 -5 -2 -10 4 -10 5 0 13 5 16 10 3 6 2 10 -4 10 -5 0
-13 -4 -16 -10z"/>
<path d="M5902 7577 c-37 -38 -39 -47 -13 -47 11 0 21 -6 23 -12 4 -10 8 -9
19 2 14 15 22 90 9 90 -3 0 -20 -15 -38 -33z m18 -17 c0 -5 -5 -10 -11 -10 -5
0 -7 5 -4 10 3 6 8 10 11 10 2 0 4 -4 4 -10z"/>
<path d="M5955 7520 c-3 -5 -2 -10 4 -10 5 0 13 5 16 10 3 6 2 10 -4 10 -5 0
-13 -4 -16 -10z"/>
<path d="M5073 7643 c-21 -8 -14 -25 7 -18 27 9 25 -7 -5 -35 -33 -31 -32 -40
5 -40 17 0 30 5 30 10 0 6 -8 10 -17 10 -14 0 -13 3 5 16 39 27 18 75 -25 57z"/>
<path d="M5125 7560 c-3 -5 -2 -10 4 -10 5 0 13 5 16 10 3 6 2 10 -4 10 -5 0
-13 -4 -16 -10z"/>
<path d="M5363 7773 c-23 -9 -14 -25 9 -17 20 6 21 5 10 -8 -7 -9 -9 -23 -6
-33 6 -14 3 -16 -16 -10 -16 5 -21 4 -18 -6 3 -8 15 -14 28 -14 20 0 26 7 31
35 10 46 -5 67 -38 53z"/>
<path d="M5415 7690 c-3 -5 -2 -10 4 -10 5 0 13 5 16 10 3 6 2 10 -4 10 -5 0
-13 -4 -16 -10z"/>
<path d="M6854 5870 c-55 -22 -81 -101 -48 -148 12 -17 25 -22 58 -22 51 0 72
15 81 58 7 32 7 32 -34 32 -30 0 -41 -4 -41 -15 0 -9 9 -15 21 -15 12 0 19 -5
17 -12 -7 -19 -69 -16 -82 4 -8 13 -6 26 7 52 14 31 21 36 52 36 19 0 35 -4
35 -10 0 -5 9 -10 20 -10 25 0 26 12 3 33 -24 20 -63 28 -89 17z"/>
<path d="M7215 5871 c-54 -23 -81 -100 -51 -146 12 -19 25 -25 52 -25 19 0 44
5 56 11 21 11 48 66 48 98 0 44 -61 80 -105 62z m63 -69 c4 -40 -20 -72 -54
-72 -32 0 -47 31 -33 67 13 34 27 44 59 41 20 -3 26 -9 28 -36z"/>
<path d="M7390 5868 c-14 -7 -33 -30 -43 -51 -16 -31 -17 -43 -7 -71 12 -37
26 -46 69 -46 25 0 71 35 71 53 0 13 -27 7 -40 -9 -8 -8 -25 -14 -39 -12 -53
6 -30 108 24 108 13 0 27 -4 30 -10 9 -15 35 -12 35 4 0 32 -61 53 -100 34z"/>
<path d="M6995 5848 c-30 -132 -31 -148 -10 -148 8 0 17 14 21 36 5 28 10 35
28 32 13 -2 27 -16 35 -35 9 -20 22 -33 33 -33 17 0 17 2 3 36 -14 35 -14 38
5 51 15 11 20 24 18 46 -3 32 -3 32 -65 35 -58 3 -63 1 -68 -20z m105 -16 c0
-17 -25 -32 -52 -32 -26 0 -37 17 -21 33 9 10 73 9 73 -1z"/>
<path d="M7521 5808 c-7 -35 -15 -73 -18 -85 -4 -18 -1 -23 16 -23 15 0 21 6
21 23 0 13 9 32 19 41 19 17 20 16 41 -23 13 -27 27 -41 40 -41 25 0 25 -2 -6
54 l-27 47 34 35 c26 27 29 34 15 34 -10 0 -36 -14 -59 -32 l-40 -32 6 32 c5
27 3 32 -12 32 -15 0 -21 -13 -30 -62z"/>
<path d="M7715 5794 c-51 -97 -50 -94 -27 -94 12 0 23 9 27 20 5 15 15 20 41
20 27 0 34 -4 34 -20 0 -14 7 -20 21 -20 17 0 20 5 15 28 -3 15 -8 45 -12 67
-10 66 -14 75 -37 75 -17 0 -31 -17 -62 -76z m65 1 c0 -18 -5 -25 -20 -25 -17
0 -18 3 -8 25 6 14 15 25 20 25 4 0 8 -11 8 -25z"/>
<path d="M3830 6343 c0 -17 25 -16 39 1 10 11 7 14 -14 12 -14 0 -25 -7 -25
-13z"/>
<path d="M3798 6303 c-26 -30 -31 -62 -14 -88 19 -29 66 -34 86 -10 18 22 4
31 -24 16 -13 -8 -29 -10 -35 -7 -16 10 -13 52 5 70 17 18 44 21 44 6 0 -5 7
-10 15 -10 18 0 19 12 3 28 -18 18 -63 15 -80 -5z"/>
<path d="M3913 6270 c-13 -64 -1 -83 47 -78 38 3 52 24 64 91 5 29 4 37 -8 37
-10 0 -17 -15 -21 -45 -4 -24 -13 -50 -21 -56 -19 -16 -47 -3 -40 18 16 59 17
83 3 83 -9 0 -18 -18 -24 -50z"/>
<path d="M4041 6263 c-14 -72 -14 -73 4 -73 8 0 15 8 15 19 0 10 6 24 14 30
12 10 18 7 31 -18 12 -24 22 -31 46 -31 17 0 32 6 35 15 8 20 44 19 60 -2 20
-29 27 -8 18 54 -7 47 -13 59 -29 61 -17 2 -27 -10 -50 -58 -16 -33 -32 -60
-35 -60 -3 0 -14 16 -23 35 -17 36 -17 36 10 60 25 21 26 24 9 25 -11 0 -33
-12 -49 -27 l-29 -28 7 28 c5 20 3 27 -8 27 -9 0 -18 -19 -26 -57z m199 -15
c0 -5 -7 -8 -15 -8 -17 0 -18 2 -9 25 5 13 8 14 15 3 5 -7 9 -16 9 -20z"/>
<path d="M4301 6264 c-14 -73 -14 -74 4 -74 9 0 15 9 15 25 0 16 6 25 15 25 9
0 21 -11 27 -25 6 -14 17 -25 25 -25 16 0 16 5 2 31 -8 16 -7 23 6 33 10 7 16
22 13 37 -3 21 -9 24 -49 27 l-46 3 -12 -57z m82 29 c11 -10 -13 -33 -34 -33
-18 0 -26 20 -12 33 8 9 38 9 46 0z"/>
<path d="M4431 6263 c-14 -71 -14 -73 3 -73 8 0 16 16 20 43 4 23 9 52 13 65
3 15 1 22 -10 22 -9 0 -18 -19 -26 -57z"/>
<path d="M4498 6303 c-26 -30 -31 -62 -14 -88 19 -29 66 -34 86 -10 18 22 4
31 -24 16 -13 -8 -29 -10 -35 -7 -16 10 -13 52 5 70 17 18 44 21 44 6 0 -5 7
-10 15 -10 18 0 19 12 3 28 -18 18 -63 15 -80 -5z"/>
<path d="M4622 6255 c-25 -51 -28 -65 -17 -65 9 0 18 7 21 15 8 20 44 19 60
-2 20 -29 27 -8 18 54 -7 47 -13 59 -29 61 -16 2 -27 -11 -53 -63z m58 -7 c0
-5 -7 -8 -15 -8 -17 0 -18 2 -9 25 5 13 8 14 15 3 5 -7 9 -16 9 -20z"/>
<path d="M5650 6353 c0 -17 25 -16 39 1 10 11 7 14 -14 12 -14 0 -25 -7 -25
-13z"/>
<path d="M5353 6313 c3 -10 8 -39 12 -65 9 -67 31 -63 73 11 36 67 37 71 19
71 -7 0 -24 -21 -37 -47 l-24 -48 -9 48 c-6 30 -14 47 -24 47 -9 0 -13 -7 -10
-17z"/>
<path d="M5492 6317 c-26 -31 -33 -69 -17 -93 44 -68 143 15 105 87 -12 22
-71 27 -88 6z m66 -43 c4 -38 -21 -63 -46 -47 -24 15 -27 41 -6 64 25 28 48
20 52 -17z"/>
<path d="M5620 6321 c0 -5 11 -11 25 -13 l26 -3 -42 -50 -41 -50 47 -3 c26 -2
53 2 58 7 8 8 2 11 -21 11 -18 0 -32 4 -32 8 0 4 16 23 35 42 48 46 45 60 -10
60 -25 0 -45 -4 -45 -9z"/>
<path d="M5721 6273 c-15 -76 -16 -73 27 -73 64 0 100 57 72 111 -8 14 -21 19
-49 19 l-38 0 -12 -57z m77 2 c4 -30 -17 -55 -45 -55 -11 0 -12 9 -7 38 9 48
12 54 32 50 10 -2 18 -15 20 -33z"/>
<path d="M5872 6317 c-26 -31 -33 -69 -17 -93 44 -68 143 15 105 87 -12 22
-71 27 -88 6z m66 -43 c4 -38 -21 -63 -46 -47 -24 15 -27 41 -6 64 25 28 48
20 52 -17z"/>
<path d="M5993 6313 c3 -10 8 -39 12 -65 9 -67 31 -63 73 11 36 67 37 71 19
71 -7 0 -24 -21 -37 -47 l-24 -48 -9 48 c-6 30 -14 47 -24 47 -9 0 -13 -7 -10
-17z"/>
<path d="M6115 6273 c-39 -74 -39 -73 -22 -73 8 0 17 7 21 15 3 8 17 15 31 15
16 0 25 -6 25 -15 0 -8 7 -15 16 -15 17 0 16 10 -2 103 -9 44 -36 33 -69 -30z
m41 -20 c-11 -11 -17 4 -9 23 7 18 8 18 11 1 2 -10 1 -21 -2 -24z"/>
<path d="M6241 6304 c-23 -29 -26 -55 -11 -85 13 -23 72 -26 90 -4 18 22 4 31
-24 16 -13 -8 -29 -10 -35 -7 -15 10 -14 48 3 71 13 17 17 18 40 6 30 -17 45
-9 26 14 -20 24 -66 19 -89 -11z"/>
<path d="M4996 6784 c-11 -28 -7 -44 9 -38 10 4 15 0 15 -11 0 -12 -5 -15 -21
-10 -15 5 -20 3 -17 -6 8 -24 46 -22 59 2 10 20 9 25 -11 41 -22 18 -22 18 -1
18 12 0 21 5 21 10 0 16 -47 11 -54 -6z"/>
<path d="M5055 6710 c-3 -5 -2 -10 4 -10 5 0 13 5 16 10 3 6 2 10 -4 10 -5 0
-13 -4 -16 -10z"/>
<path d="M1195 5311 c-54 -23 -81 -100 -51 -146 12 -19 25 -25 52 -25 19 0 44
5 56 11 21 11 48 66 48 98 0 44 -61 80 -105 62z m63 -69 c4 -40 -20 -72 -54
-72 -32 0 -47 31 -33 67 13 34 27 44 59 41 20 -3 26 -9 28 -36z"/>
<path d="M2053 5305 c-84 -36 -73 -165 14 -165 80 0 127 112 67 159 -31 24
-38 25 -81 6z m72 -46 c10 -30 -14 -78 -41 -85 -48 -12 -70 38 -38 84 20 29
70 30 79 1z"/>
<path d="M2555 5306 c-51 -22 -72 -98 -39 -144 22 -32 77 -30 112 5 24 24 25
28 9 31 -10 2 -26 -3 -36 -12 -25 -23 -50 -20 -62 8 -17 37 7 80 49 84 18 2
32 -1 32 -7 0 -6 9 -11 20 -11 27 0 25 15 -6 39 -31 24 -38 25 -79 7z"/>
<path d="M1335 5288 c-35 -156 -37 -148 33 -148 44 0 63 5 75 18 19 21 22 48
7 57 -6 4 -4 15 6 30 12 18 13 28 4 44 -9 17 -20 21 -65 21 -48 0 -55 -3 -60
-22z m93 -25 c-4 -23 -68 -32 -68 -10 0 20 10 27 42 27 23 0 29 -4 26 -17z
m-3 -73 c0 -10 -12 -16 -37 -18 -33 -3 -38 0 -38 18 0 18 5 21 38 18 25 -2 37
-8 37 -18z"/>
<path d="M1501 5248 c-7 -35 -15 -73 -18 -85 -4 -18 -1 -23 16 -23 14 0 21 6
21 19 0 59 38 69 63 16 9 -19 23 -35 32 -35 19 0 19 20 0 47 -14 20 -14 23 5
33 11 6 23 22 26 35 10 40 -11 55 -76 55 l-57 0 -12 -62z m107 15 c-2 -12 -14
-19 -36 -21 -27 -3 -32 0 -32 17 0 17 6 21 36 21 28 0 35 -3 32 -17z"/>
<path d="M1685 5288 c-35 -157 -38 -148 40 -148 51 0 65 3 65 15 0 11 -12 15
-45 15 -38 0 -45 3 -45 19 0 17 8 20 47 23 64 4 71 28 8 28 -39 0 -46 3 -43
18 2 13 15 18 50 20 29 2 48 8 52 18 4 11 -7 14 -59 14 -59 0 -65 -2 -70 -22z"/>
<path d="M1845 5288 c-30 -132 -31 -148 -10 -148 8 0 17 14 21 38 12 66 20 69
39 13 23 -69 49 -71 63 -3 25 114 25 122 8 122 -9 0 -18 -12 -22 -27 -17 -80
-19 -81 -39 -25 -21 56 -50 71 -60 30z"/>
<path d="M2193 5293 c3 -10 11 -48 17 -85 11 -59 15 -68 34 -68 16 0 30 18 61
77 22 42 42 81 43 85 2 4 -5 8 -15 8 -14 0 -28 -18 -48 -60 -32 -66 -40 -64
-50 12 -6 39 -11 48 -27 48 -14 0 -18 -5 -15 -17z"/>
<path d="M2355 5234 c-51 -97 -50 -94 -27 -94 12 0 23 9 27 20 5 15 15 20 41
20 27 0 34 -4 34 -20 0 -14 7 -20 21 -20 17 0 20 5 15 28 -3 15 -8 45 -12 67
-10 66 -14 75 -37 75 -17 0 -31 -17 -62 -76z m65 1 c0 -18 -5 -25 -20 -25 -17
0 -18 3 -8 25 6 14 15 25 20 25 4 0 8 -11 8 -25z"/>
<path d="M4963 4695 c-84 -36 -73 -165 14 -165 80 0 127 112 67 159 -31 24
-38 25 -81 6z m72 -46 c10 -30 -14 -78 -41 -85 -48 -12 -70 38 -38 84 20 29
70 30 79 1z"/>
<path d="M3771 4638 c-7 -35 -15 -73 -18 -85 -5 -22 -2 -23 54 -23 77 0 114
29 91 72 -5 11 -4 25 4 38 22 34 0 55 -64 58 l-55 3 -12 -63z m102 25 c12 -11
-14 -33 -39 -33 -17 0 -24 6 -24 20 0 15 7 20 28 20 16 0 32 -3 35 -7z m-5
-80 c-2 -13 -14 -19 -41 -21 -39 -3 -40 -3 -31 22 4 10 18 16 41 16 27 0 34
-4 31 -17z"/>
<path d="M3965 4624 c-51 -97 -50 -94 -27 -94 12 0 23 9 27 20 5 15 15 20 41
20 27 0 34 -4 34 -20 0 -14 7 -20 21 -20 17 0 20 5 15 28 -3 15 -8 45 -12 67
-10 66 -14 75 -37 75 -17 0 -31 -17 -62 -76z m65 1 c0 -18 -5 -25 -20 -25 -17
0 -18 3 -8 25 6 14 15 25 20 25 4 0 8 -11 8 -25z"/>
<path d="M4125 4678 c-30 -132 -31 -148 -10 -148 8 0 17 14 21 36 5 28 10 35
28 32 13 -2 27 -16 35 -35 9 -20 22 -33 33 -33 17 0 17 2 3 36 -14 35 -14 38
5 51 15 11 20 24 18 46 -3 32 -3 32 -65 35 -58 3 -63 1 -68 -20z m105 -16 c0
-17 -25 -32 -52 -32 -26 0 -37 17 -21 33 9 10 73 9 73 -1z"/>
<path d="M4307 4618 c-37 -68 -42 -84 -29 -87 9 -2 23 6 30 18 19 28 72 29 79
1 6 -24 33 -27 33 -4 0 8 -5 46 -11 85 -11 62 -14 69 -35 69 -18 0 -31 -17
-67 -82z m67 10 c5 -24 3 -28 -14 -28 -23 0 -24 1 -8 35 13 29 13 29 22 -7z"/>
<path d="M4530 4634 c-8 -42 -18 -68 -28 -72 -9 -3 -18 0 -20 6 -5 16 -42 15
-42 -1 0 -22 23 -37 57 -37 39 0 48 14 67 104 13 62 12 66 -4 66 -14 0 -20
-14 -30 -66z"/>
<path d="M4605 4678 c-35 -157 -38 -148 40 -148 51 0 65 3 65 15 0 11 -12 15
-45 15 -38 0 -45 3 -45 19 0 17 8 20 47 23 64 4 71 28 8 28 -39 0 -46 3 -43
18 2 13 15 18 50 20 29 2 48 8 52 18 4 11 -7 14 -59 14 -59 0 -65 -2 -70 -22z"/>
<path d="M4753 4683 c3 -10 11 -48 17 -85 11 -59 15 -68 34 -68 16 0 30 18 61
77 22 42 42 81 43 85 2 4 -5 8 -15 8 -14 0 -28 -18 -48 -60 -32 -66 -40 -64
-50 12 -6 39 -11 48 -27 48 -14 0 -18 -5 -15 -17z"/>
<path d="M5574 3830 c-46 -18 -37 -68 16 -95 17 -9 30 -22 30 -30 0 -18 -41
-20 -57 -4 -6 6 -18 9 -27 7 -15 -3 -15 -5 -1 -25 31 -45 125 -22 125 30 0 9
-18 28 -40 42 -22 14 -40 30 -40 35 0 13 47 13 55 0 7 -12 35 -13 35 -2 0 33
-58 58 -96 42z"/>
<path d="M5755 3831 c-54 -23 -81 -100 -51 -146 12 -19 25 -25 52 -25 19 0 44
5 56 11 21 11 48 66 48 98 0 44 -61 80 -105 62z m63 -69 c4 -40 -20 -72 -54
-72 -32 0 -47 31 -33 67 13 34 27 44 59 41 20 -3 26 -9 28 -36z"/>
<path d="M6093 3825 c-84 -36 -73 -165 14 -165 80 0 127 112 67 159 -31 24
-38 25 -81 6z m72 -46 c10 -30 -14 -78 -41 -85 -48 -12 -70 38 -38 84 20 29
70 30 79 1z"/>
<path d="M5895 3808 c-30 -132 -31 -148 -11 -148 8 0 17 14 21 30 5 23 12 30
30 30 63 0 108 48 85 91 -9 15 -22 19 -65 19 -48 0 -55 -3 -60 -22z m95 -23
c0 -16 -30 -35 -54 -35 -16 0 -22 30 -9 43 13 14 63 7 63 -8z"/>
<path d="M6237 3824 c-10 -11 3 -24 24 -24 22 0 22 3 5 -77 -13 -59 -12 -63 4
-63 15 0 21 14 31 70 12 67 13 70 41 70 18 0 28 5 28 15 0 12 -14 15 -63 15
-35 0 -67 -3 -70 -6z"/>
<path d="M7783 2955 c-84 -36 -73 -165 14 -165 80 0 127 112 67 159 -31 24
-38 25 -81 6z m72 -46 c10 -30 -14 -78 -41 -85 -48 -12 -70 38 -38 84 20 29
70 30 79 1z"/>
<path d="M8285 2956 c-51 -22 -72 -98 -39 -144 22 -32 77 -30 112 5 24 24 25
28 9 31 -10 2 -26 -3 -36 -12 -25 -23 -50 -20 -62 8 -17 37 7 80 49 84 18 2
32 -1 32 -7 0 -6 9 -11 20 -11 27 0 25 15 -6 39 -31 24 -38 25 -79 7z"/>
<path d="M6711 2898 c-7 -35 -15 -74 -18 -86 -5 -20 -2 -23 13 -20 14 2 22 18
30 63 l12 60 1 -62 c1 -55 4 -63 20 -63 13 0 26 17 45 58 22 48 25 51 20 22
-3 -19 -8 -45 -11 -57 -4 -18 -1 -23 14 -23 15 0 21 14 34 85 l15 86 -29 -3
c-25 -3 -32 -11 -53 -58 l-23 -55 -1 58 c0 56 0 57 -29 57 -27 0 -29 -3 -40
-62z"/>
<path d="M6911 2898 c-7 -35 -15 -73 -18 -85 -5 -22 -3 -23 61 -23 52 0 66 3
66 15 0 11 -12 15 -46 15 -38 0 -45 3 -40 18 2 9 7 33 11 52 4 19 9 43 11 53
4 12 0 17 -14 17 -16 0 -22 -11 -31 -62z"/>
<path d="M7075 2884 c-51 -97 -50 -94 -27 -94 12 0 23 9 27 20 5 15 15 20 41
20 27 0 34 -4 34 -20 0 -14 7 -20 21 -20 17 0 20 5 15 28 -3 15 -8 45 -12 67
-10 66 -14 75 -37 75 -17 0 -31 -17 -62 -76z m65 1 c0 -18 -5 -25 -20 -25 -17
0 -18 3 -8 25 6 14 15 25 20 25 4 0 8 -11 8 -25z"/>
<path d="M7231 2898 c-7 -35 -15 -73 -18 -85 -5 -22 -2 -23 47 -23 44 0 56 4
81 29 22 23 29 39 29 69 0 52 -23 72 -82 72 l-45 0 -12 -62z m107 -1 c5 -42
-22 -77 -59 -77 -24 0 -29 4 -25 18 3 9 8 34 12 55 6 35 9 38 38 35 26 -2 32
-8 34 -31z"/>
<path d="M7415 2938 c-35 -157 -38 -148 40 -148 51 0 65 3 65 15 0 11 -12 15
-45 15 -38 0 -45 3 -45 19 0 17 8 20 47 23 64 4 71 28 8 28 -39 0 -46 3 -43
18 2 13 15 18 50 20 29 2 48 8 52 18 4 11 -7 14 -59 14 -59 0 -65 -2 -70 -22z"/>
<path d="M7575 2938 c-30 -132 -31 -148 -10 -148 8 0 17 14 21 38 12 66 20 69
39 13 23 -69 49 -71 63 -3 25 114 25 122 8 122 -9 0 -18 -12 -22 -27 -17 -80
-19 -81 -39 -25 -21 56 -50 71 -60 30z"/>
<path d="M7923 2943 c3 -10 11 -48 17 -85 11 -59 15 -68 34 -68 16 0 30 18 61
77 22 42 42 81 43 85 2 4 -5 8 -15 8 -14 0 -28 -18 -48 -60 -32 -66 -40 -64
-50 12 -6 39 -11 48 -27 48 -14 0 -18 -5 -15 -17z"/>
<path d="M8085 2884 c-51 -97 -50 -94 -27 -94 12 0 23 9 27 20 5 15 15 20 41
20 27 0 34 -4 34 -20 0 -14 7 -20 21 -20 17 0 20 5 15 28 -3 15 -8 45 -12 67
-10 66 -14 75 -37 75 -17 0 -31 -17 -62 -76z m65 1 c0 -18 -5 -25 -20 -25 -17
0 -18 3 -8 25 6 14 15 25 20 25 4 0 8 -11 8 -25z"/>
<path d="M4365 2156 c-51 -22 -72 -98 -39 -144 22 -32 77 -30 112 5 24 24 25
28 9 31 -10 2 -26 -3 -36 -12 -25 -23 -50 -20 -62 8 -17 37 7 80 49 84 18 2
32 -1 32 -7 0 -6 9 -11 20 -11 27 0 25 15 -6 39 -31 24 -38 25 -79 7z"/>
<path d="M3031 2098 c-7 -35 -15 -73 -18 -85 -5 -22 -3 -23 61 -23 52 0 66 3
66 15 0 11 -12 15 -46 15 -38 0 -45 3 -40 18 2 9 7 33 11 52 4 19 9 43 11 53
4 12 0 17 -14 17 -16 0 -22 -11 -31 -62z"/>
<path d="M3195 2084 c-51 -97 -50 -94 -27 -94 12 0 23 9 27 20 5 15 15 20 41
20 27 0 34 -4 34 -20 0 -14 7 -20 21 -20 17 0 20 5 15 28 -3 15 -8 45 -12 67
-10 66 -14 75 -37 75 -17 0 -31 -17 -62 -76z m65 1 c0 -18 -5 -25 -20 -25 -17
0 -18 3 -8 25 6 14 15 25 20 25 4 0 8 -11 8 -25z"/>
<path d="M3350 2146 c0 -10 13 -16 36 -18 l36 -3 -39 -45 c-22 -25 -45 -55
-52 -67 -12 -23 -11 -23 59 -23 54 0 70 3 70 14 0 10 -13 16 -40 18 l-40 3 50
55 c27 30 49 61 50 68 0 8 -19 12 -65 12 -50 0 -65 -3 -65 -14z"/>
<path d="M3515 2084 c-51 -97 -50 -94 -27 -94 12 0 23 9 27 20 5 15 15 20 41
20 27 0 34 -4 34 -20 0 -14 7 -20 21 -20 17 0 20 5 15 28 -3 15 -8 45 -12 67
-10 66 -14 75 -37 75 -17 0 -31 -17 -62 -76z m65 1 c0 -18 -5 -25 -20 -25 -17
0 -18 3 -8 25 6 14 15 25 20 25 4 0 8 -11 8 -25z"/>
<path d="M3671 2098 c-7 -35 -15 -73 -18 -85 -4 -18 -1 -23 16 -23 14 0 21 6
21 19 0 59 38 69 63 16 9 -19 23 -35 32 -35 19 0 19 20 0 47 -14 20 -14 23 5
33 11 6 23 22 26 35 10 40 -11 55 -76 55 l-57 0 -12 -62z m107 15 c-2 -12 -14
-19 -36 -21 -27 -3 -32 0 -32 17 0 17 6 21 36 21 28 0 35 -3 32 -17z"/>
<path d="M3855 2138 c-35 -157 -38 -148 40 -148 51 0 65 3 65 15 0 11 -12 15
-45 15 -38 0 -45 3 -45 19 0 17 8 20 47 23 64 4 71 28 8 28 -39 0 -46 3 -43
18 2 13 15 18 50 20 29 2 48 8 52 18 4 11 -7 14 -59 14 -59 0 -65 -2 -70 -22z"/>
<path d="M4003 2143 c3 -10 11 -48 17 -85 11 -59 15 -68 34 -68 16 0 30 18 61
77 22 42 42 81 43 85 2 4 -5 8 -15 8 -14 0 -28 -18 -48 -60 -32 -66 -40 -64
-50 12 -6 39 -11 48 -27 48 -14 0 -18 -5 -15 -17z"/>
<path d="M4165 2084 c-51 -97 -50 -94 -27 -94 12 0 23 9 27 20 5 15 15 20 41
20 27 0 34 -4 34 -20 0 -14 7 -20 21 -20 17 0 20 5 15 28 -3 15 -8 45 -12 67
-10 66 -14 75 -37 75 -17 0 -31 -17 -62 -76z m65 1 c0 -18 -5 -25 -20 -25 -17
0 -18 3 -8 25 6 14 15 25 20 25 4 0 8 -11 8 -25z"/>
<path d="M7595 11328 c-4 -18 -9 -41 -11 -50 -4 -15 1 -18 30 -18 20 0 36 5
36 10 0 6 -11 10 -25 10 -15 0 -23 5 -21 13 12 38 15 67 7 67 -5 0 -12 -15
-16 -32z"/>
<path d="M8060 11346 c0 -9 -12 -16 -27 -18 -24 -3 -28 -8 -28 -33 0 -24 5
-31 24 -33 13 -2 27 0 31 5 14 14 23 93 11 93 -6 0 -11 -6 -11 -14z m-10 -46
c0 -11 -7 -20 -15 -20 -15 0 -21 21 -8 33 12 13 23 7 23 -13z"/>
<path d="M7675 11310 c-11 -35 32 -68 51 -38 5 8 2 9 -9 5 -9 -3 -19 -2 -22 3
-4 6 6 10 20 10 36 0 30 34 -7 38 -19 2 -28 -2 -33 -18z m45 6 c0 -3 -4 -8
-10 -11 -5 -3 -10 -1 -10 4 0 6 5 11 10 11 6 0 10 -2 10 -4z"/>
<path d="M7757 11323 c-16 -15 -6 -54 16 -63 21 -8 20 -9 -8 -10 -29 -1 -29
-2 -7 -12 30 -15 48 3 57 55 7 36 6 37 -22 37 -16 0 -33 -3 -36 -7z m35 -35
c-15 -15 -26 -4 -18 18 5 13 9 15 18 6 9 -9 9 -15 0 -24z"/>
<path d="M7841 11316 c-25 -30 16 -74 42 -46 10 10 8 12 -5 7 -10 -3 -20 -2
-23 3 -4 6 6 10 20 10 20 0 26 4 23 18 -4 22 -41 27 -57 8z m39 -6 c0 -5 -4
-10 -10 -10 -5 0 -10 5 -10 10 0 6 5 10 10 10 6 0 10 -4 10 -10z"/>
<path d="M7916 11314 c-9 -23 -7 -54 3 -54 5 0 11 14 15 30 7 40 30 40 24 0
-3 -19 -1 -29 6 -27 6 2 12 18 14 35 3 29 1 32 -26 32 -18 0 -32 -6 -36 -16z"/>
<path d="M8100 11319 c0 -5 5 -7 10 -4 6 3 10 8 10 11 0 2 -4 4 -10 4 -5 0
-10 -5 -10 -11z"/>
<path d="M8085 11270 c-3 -5 -2 -10 4 -10 5 0 13 5 16 10 3 6 2 10 -4 10 -5 0
-13 -4 -16 -10z"/>
<path d="M7415 11014 c-16 -12 -17 -16 -6 -23 9 -6 11 -18 7 -35 -7 -29 10
-37 18 -8 12 45 17 82 9 82 -4 0 -17 -7 -28 -16z"/>
<path d="M7556 11013 c-7 -16 10 -37 37 -46 6 -2 7 -9 3 -15 -5 -9 -13 -9 -26
-2 -25 14 -30 13 -24 -5 8 -21 63 -20 71 2 4 11 -3 24 -21 38 -28 22 -24 42 4
24 23 -14 34 -11 20 6 -17 20 -56 19 -64 -2z"/>
<path d="M7650 11020 c0 -5 5 -10 11 -10 8 0 9 -13 5 -40 -3 -22 -2 -40 3 -40
5 0 12 18 16 40 4 24 12 40 20 40 8 0 17 5 20 10 4 6 -10 10 -34 10 -23 0 -41
-4 -41 -10z"/>
<path d="M7732 10984 c-13 -26 -20 -49 -16 -53 4 -3 9 0 11 7 3 6 15 12 28 12
13 0 25 -6 28 -12 9 -27 15 -1 10 45 -7 63 -31 63 -61 1z m38 1 c0 -8 -4 -15
-10 -15 -5 0 -7 7 -4 15 4 8 8 15 10 15 2 0 4 -7 4 -15z"/>
<path d="M7825 10998 c-4 -18 -9 -41 -11 -50 -3 -10 -1 -18 4 -18 5 0 12 9 15
20 3 11 10 20 16 20 6 0 15 -9 21 -20 6 -11 15 -20 21 -20 7 0 7 6 0 17 -7 13
-5 23 5 34 22 25 7 49 -31 49 -30 0 -34 -4 -40 -32z m65 3 c0 -12 -29 -23 -41
-15 -18 10 -9 24 16 24 14 0 25 -4 25 -9z"/>
<path d="M7923 10980 c-6 -27 -7 -50 -2 -50 12 0 16 10 24 58 10 60 -10 53
-22 -8z"/>
<path d="M8015 11014 c-10 -10 -15 -29 -13 -48 3 -26 8 -32 33 -34 19 -3 33 2
42 14 18 25 16 34 -8 34 -17 0 -19 -3 -10 -14 9 -11 8 -15 -5 -20 -22 -9 -34
1 -34 29 0 29 31 50 48 33 14 -14 27 -4 17 11 -10 16 -51 13 -70 -5z"/>
<path d="M8117 11013 c-15 -52 -18 -83 -8 -83 6 0 11 9 11 20 0 11 7 20 15 20
8 0 19 -9 25 -20 6 -11 15 -20 21 -20 6 0 5 8 -2 21 -8 16 -8 23 1 29 7 4 10
16 8 26 -5 27 -64 32 -71 7z m51 -15 c-7 -19 -38 -22 -38 -4 0 10 9 16 21 16
12 0 19 -5 17 -12z"/>
<path d="M8222 10984 c-13 -26 -20 -49 -16 -53 4 -3 9 0 11 7 3 6 15 12 28 12
13 0 25 -6 28 -12 9 -27 15 -1 10 45 -7 63 -31 63 -61 1z m38 1 c0 -8 -4 -15
-10 -15 -5 0 -7 7 -4 15 4 8 8 15 10 15 2 0 4 -7 4 -15z"/>
<path d="M8315 10998 c-3 -18 -9 -41 -11 -50 -4 -14 1 -18 23 -18 45 0 65 20
61 60 -3 31 -7 35 -35 38 -28 3 -32 0 -38 -30z m60 2 c9 -15 -14 -50 -34 -50
-14 0 -17 6 -13 30 4 30 33 42 47 20z"/>
<path d="M7465 10940 c-3 -5 -2 -10 4 -10 5 0 13 5 16 10 3 6 2 10 -4 10 -5 0
-13 -4 -16 -10z"/>
<path d="M7413 10683 c-21 -8 -14 -25 7 -18 27 9 25 -7 -5 -35 -33 -31 -32
-40 5 -40 17 0 30 5 30 10 0 6 -7 10 -15 10 -12 0 -11 4 5 20 24 24 26 46 4
54 -9 3 -16 6 -17 5 -1 0 -8 -3 -14 -6z"/>
<path d="M7556 10673 c-7 -16 10 -37 37 -46 6 -2 7 -9 3 -15 -5 -9 -13 -9 -26
-2 -25 14 -30 13 -24 -5 8 -21 63 -20 71 2 4 11 -3 24 -21 38 -28 22 -24 42 4
24 23 -14 34 -11 20 6 -17 20 -56 19 -64 -2z"/>
<path d="M7655 10640 c-27 -53 -26 -57 5 -38 16 10 24 10 40 0 18 -11 20 -10
20 15 0 43 -11 73 -26 73 -8 0 -25 -22 -39 -50z m41 -7 c-10 -10 -19 5 -10 18
6 11 8 11 12 0 2 -7 1 -15 -2 -18z"/>
<path d="M7740 10678 c0 -41 14 -88 26 -88 8 0 25 23 39 50 14 28 21 50 15 50
-6 0 -18 -16 -27 -35 -19 -39 -33 -37 -33 6 0 16 -4 29 -10 29 -5 0 -10 -6
-10 -12z"/>
<path d="M7833 10673 c-4 -11 3 -24 21 -38 21 -17 24 -23 13 -28 -8 -3 -20 0
-26 6 -13 13 -26 3 -16 -12 10 -17 51 -13 66 5 12 14 10 19 -14 38 -15 12 -24
25 -21 29 4 4 13 2 21 -5 15 -12 28 -5 18 11 -10 17 -55 13 -62 -6z"/>
<path d="M7923 10640 c-6 -31 -7 -50 -1 -50 6 0 12 9 15 20 3 11 11 20 18 20
8 0 17 -9 20 -20 3 -11 11 -20 16 -20 12 0 11 4 -3 34 -9 22 -8 29 7 46 23 25
0 28 -27 3 -17 -15 -18 -15 -18 0 0 36 -18 14 -27 -33z"/>
<path d="M8023 10640 c-6 -27 -7 -50 -2 -50 12 0 16 10 24 58 10 60 -10 53
-22 -8z"/>
<path d="M8105 10658 c17 -84 31 -89 63 -23 24 51 26 55 14 55 -5 0 -17 -17
-27 -37 l-18 -38 -10 38 c-11 46 -31 50 -22 5z"/>
<path d="M8200 10678 c0 -7 -3 -30 -6 -50 l-7 -38 37 0 c20 0 36 5 36 10 0 6
-12 10 -26 10 -35 0 -26 23 12 31 l29 7 -27 1 c-34 1 -37 21 -4 21 14 0 28 5
31 10 4 6 -10 10 -34 10 -26 0 -41 -5 -41 -12z"/>
<path d="M8296 10673 c-13 -49 -17 -83 -8 -83 5 0 13 15 16 33 l7 32 14 -32
c8 -18 18 -33 23 -33 5 0 14 23 19 50 11 55 -1 70 -15 18 l-8 -32 -13 32 c-15
36 -27 41 -35 15z"/>
<path d="M8402 10644 c-13 -26 -20 -49 -16 -53 4 -3 9 0 11 7 5 14 53 17 53 2
0 -5 4 -10 9 -10 4 0 6 12 4 28 -14 88 -28 95 -61 26z m34 -11 c-10 -10 -19 5
-10 18 6 11 8 11 12 0 2 -7 1 -15 -2 -18z"/>
<path d="M8500 10670 c-6 -12 -10 -33 -8 -48 2 -21 9 -28 29 -30 15 -2 31 4
40 14 13 16 12 17 -6 10 -36 -13 -40 -11 -40 19 0 28 3 30 33 28 27 -1 31 1
21 13 -17 21 -57 17 -69 -6z"/>
<path d="M7465 10600 c-3 -5 -2 -10 4 -10 5 0 13 5 16 10 3 6 2 10 -4 10 -5 0
-13 -4 -16 -10z"/>
<path d="M7880 10378 c0 -11 28 -10 35 1 3 6 -4 9 -15 8 -11 -1 -20 -5 -20 -9z"/>
<path d="M7413 10353 c-21 -8 -14 -25 7 -18 11 4 20 2 20 -4 0 -6 -5 -11 -11
-11 -6 0 -8 -9 -4 -21 6 -18 4 -20 -14 -14 -21 6 -30 -9 -11 -20 21 -13 48 6
53 38 6 44 -9 63 -40 50z"/>
<path d="M7555 10328 c17 -84 31 -89 63 -23 24 51 26 55 14 55 -5 0 -17 -17
-27 -37 l-18 -38 -10 38 c-11 46 -31 50 -22 5z"/>
<path d="M7650 10348 c0 -7 -3 -30 -6 -50 -5 -25 -3 -38 5 -38 6 0 11 9 11 20
0 11 6 20 14 20 8 0 18 -9 21 -20 9 -29 27 -25 19 5 -4 16 -2 25 6 25 6 0 10
10 8 23 -2 18 -10 23 -40 25 -26 2 -38 -1 -38 -10z m60 -17 c0 -5 -7 -12 -16
-15 -22 -9 -24 -8 -24 9 0 8 9 15 20 15 11 0 20 -4 20 -9z"/>
<path d="M7755 10310 c-27 -53 -26 -57 5 -38 16 10 24 10 40 0 18 -11 20 -10
20 15 0 43 -11 73 -26 73 -8 0 -25 -22 -39 -50z m41 -7 c-10 -10 -19 5 -10 18
6 11 8 11 12 0 2 -7 1 -15 -2 -18z"/>
<path d="M7856 10338 c-19 -27 -20 -50 -4 -66 15 -15 55 -16 63 -1 10 16 -3
23 -18 11 -10 -9 -17 -8 -25 0 -16 16 -15 34 4 53 13 12 19 13 30 4 16 -13 30
-6 19 10 -11 19 -53 12 -69 -11z"/>
<path d="M7962 10314 c-13 -26 -20 -49 -16 -53 4 -3 9 0 11 7 5 14 53 17 53 2
0 -5 4 -10 9 -10 4 0 6 12 4 28 -14 88 -28 95 -61 26z m34 -11 c-10 -10 -19 5
-10 18 6 11 8 11 12 0 2 -7 1 -15 -2 -18z"/>
<path d="M8057 10343 c-15 -52 -18 -83 -8 -83 6 0 11 9 11 20 0 11 7 20 15 20
8 0 19 -9 25 -20 6 -11 15 -20 21 -20 6 0 5 8 -2 21 -8 16 -8 23 1 29 7 4 10
16 8 26 -5 27 -64 32 -71 7z m51 -15 c-7 -19 -38 -22 -38 -4 0 10 9 16 21 16
12 0 19 -5 17 -12z"/>
<path d="M7465 10270 c-3 -5 -2 -10 4 -10 5 0 13 5 16 10 3 6 2 10 -4 10 -5 0
-13 -4 -16 -10z"/>
<path d="M7411 9984 c-33 -37 -34 -39 -13 -42 12 -2 22 -8 22 -13 0 -15 14
-10 25 9 6 9 8 32 5 51 l-5 34 -34 -39z m19 -14 c0 -5 -5 -10 -11 -10 -5 0 -7
5 -4 10 3 6 8 10 11 10 2 0 4 -4 4 -10z"/>
<path d="M7560 10010 c0 -5 7 -10 16 -10 13 0 11 -7 -10 -34 -14 -19 -26 -37
-26 -40 0 -3 16 -6 35 -6 19 0 35 5 35 10 0 6 -9 10 -21 10 -20 0 -19 3 10 35
17 20 31 38 31 40 0 3 -16 5 -35 5 -19 0 -35 -4 -35 -10z"/>
<path d="M7640 10008 c0 -41 14 -88 26 -88 8 0 25 23 39 50 14 28 21 50 15 50
-6 0 -18 -16 -27 -35 -19 -39 -33 -37 -33 6 0 16 -4 29 -10 29 -5 0 -10 -6
-10 -12z"/>
<path d="M7735 9988 c-4 -18 -9 -41 -11 -50 -5 -15 1 -18 35 -18 23 0 41 5 41
10 0 6 -13 10 -30 10 -40 0 -29 27 13 33 l32 4 -32 1 c-41 2 -44 22 -3 22 17
0 30 5 30 10 0 6 -15 10 -34 10 -31 0 -35 -3 -41 -32z"/>
<path d="M7830 10010 c0 -5 10 -10 22 -10 21 0 20 -2 -10 -33 -18 -18 -32 -36
-32 -40 0 -4 18 -7 40 -7 22 0 40 5 40 10 0 6 -12 10 -27 10 l-27 0 32 33 c18
18 32 36 32 40 0 4 -16 7 -35 7 -19 0 -35 -4 -35 -10z"/>
<path d="M7916 10003 c-2 -10 -7 -33 -11 -50 -6 -31 -5 -33 23 -33 51 0 82 56
50 88 -18 18 -56 15 -62 -5z m52 -30 c-2 -21 -9 -29 -27 -31 -19 -3 -22 0 -17
13 3 9 6 23 6 31 0 8 9 14 21 14 16 0 20 -5 17 -27z"/>
<path d="M8022 9974 c-13 -26 -20 -49 -16 -53 4 -3 9 0 11 7 3 6 15 12 28 12
13 0 25 -6 28 -12 9 -27 15 -1 10 45 -7 63 -31 63 -61 1z m38 1 c0 -8 -4 -15
-10 -15 -5 0 -7 7 -4 15 4 8 8 15 10 15 2 0 4 -7 4 -15z"/>
<path d="M8115 9988 c-4 -18 -9 -41 -11 -50 -3 -10 -1 -18 4 -18 5 0 12 9 15
20 3 11 10 20 16 20 6 0 15 -9 21 -20 6 -11 15 -20 21 -20 7 0 7 6 0 17 -7 13
-5 23 5 34 22 25 7 49 -31 49 -30 0 -34 -4 -40 -32z m65 3 c0 -12 -29 -23 -41
-15 -18 10 -9 24 16 24 14 0 25 -4 25 -9z"/>
<path d="M8225 9970 c-14 -27 -21 -50 -16 -50 6 0 13 5 16 10 9 14 42 12 48
-2 10 -29 18 3 12 46 -9 60 -28 59 -60 -4z m45 -1 c0 -5 -7 -9 -15 -9 -9 0
-12 6 -9 15 6 15 24 11 24 -6z"/>
<path d="M7465 9930 c-3 -5 -2 -10 4 -10 5 0 13 5 16 10 3 6 2 10 -4 10 -5 0
-13 -4 -16 -10z"/>
<path d="M7406 9664 c-10 -25 -7 -31 15 -37 12 -3 18 -10 14 -17 -4 -6 -15 -8
-26 -5 -10 4 -19 2 -19 -4 0 -16 18 -23 40 -16 25 8 27 50 3 64 -16 9 -16 10
5 11 12 0 22 5 22 10 0 16 -47 11 -54 -6z"/>
<path d="M7555 9648 c-4 -18 -9 -41 -11 -50 -3 -10 -1 -18 4 -18 5 0 12 9 15
20 3 11 10 20 16 20 6 0 15 -9 21 -20 6 -11 15 -20 21 -20 7 0 7 6 0 17 -7 13
-5 23 5 34 22 25 7 49 -31 49 -30 0 -34 -4 -40 -32z m65 3 c0 -12 -29 -23 -41
-15 -18 10 -9 24 16 24 14 0 25 -4 25 -9z"/>
<path d="M7665 9630 c-14 -27 -21 -50 -16 -50 6 0 13 5 16 10 9 14 42 12 48
-2 10 -29 18 3 12 46 -9 60 -28 59 -60 -4z m45 -1 c0 -5 -7 -9 -15 -9 -9 0
-12 6 -9 15 6 15 24 11 24 -6z"/>
<path d="M7753 9630 c-6 -31 -7 -50 -1 -50 6 0 12 9 15 20 3 11 11 20 18 20 8
0 17 -9 20 -20 3 -11 11 -20 16 -20 12 0 11 4 -3 34 -9 22 -8 29 7 46 23 25 0
28 -27 3 -17 -15 -18 -15 -18 0 0 36 -18 14 -27 -33z"/>
<path d="M7866 9658 c-30 -42 -11 -83 36 -76 30 4 57 52 42 75 -17 28 -59 28
-78 1z m64 -18 c0 -25 -27 -51 -45 -44 -19 8 -19 38 0 58 19 19 45 10 45 -14z"/>
<path d="M7971 9638 c4 -24 8 -46 9 -50 1 -23 28 -2 53 40 l28 47 -7 -47 c-8
-57 10 -66 20 -10 9 56 8 62 -14 62 -13 0 -29 -14 -42 -37 -12 -20 -23 -32
-24 -27 -1 5 -5 21 -8 37 -10 45 -24 31 -15 -15z"/>
<path d="M8106 9658 c-19 -27 -20 -50 -4 -66 15 -15 55 -16 63 -1 10 16 -3 23
-18 11 -10 -9 -17 -8 -25 0 -16 16 -15 34 4 53 13 12 19 13 30 4 16 -13 30 -6
19 10 -11 19 -53 12 -69 -11z"/>
<path d="M8205 9630 c-27 -53 -26 -57 5 -38 16 10 24 10 40 0 18 -11 20 -10
20 15 0 43 -11 73 -26 73 -8 0 -25 -22 -39 -50z m41 -7 c-10 -10 -19 5 -10 18
6 11 8 11 12 0 2 -7 1 -15 -2 -18z"/>
<path d="M7465 9590 c-3 -5 -2 -10 4 -10 5 0 13 5 16 10 3 6 2 10 -4 10 -5 0
-13 -4 -16 -10z"/>
</g>
</svg>
