<svg width="18" height="13" viewBox="0 0 18 13" fill="none" xmlns="http://www.w3.org/2000/svg">
<path d="M17.0207 3.84243L8.89574 0.0507805C8.75079 -0.0169268 8.58258 -0.0169268 8.43766 0.0507805L0.312623 3.84243C0.12165 3.93132 0 4.1228 0 4.33334V9.75001H1.08332V5.18385L2.16664 5.68941V10.8333C2.16664 11.0777 2.33008 11.2914 2.566 11.356L8.52437 12.981C8.57093 12.9937 8.61852 13 8.66666 13C8.7148 13 8.7624 12.9937 8.80896 12.981L14.7673 11.356C15.0032 11.2914 15.1667 11.0777 15.1667 10.8333V5.68941L17.0207 4.82421C17.2117 4.73535 17.3334 4.54384 17.3334 4.33334C17.3334 4.1228 17.2117 3.93132 17.0207 3.84243ZM14.0834 10.4197L8.6667 11.8966L3.24999 10.4197V6.195L8.43763 8.6159C8.5101 8.64973 8.58838 8.66669 8.66666 8.66669C8.74494 8.66669 8.82322 8.64977 8.8957 8.6159L14.0833 6.195C14.0834 6.19497 14.0834 10.4197 14.0834 10.4197ZM8.6667 7.52727L1.82229 4.33334L8.66666 1.1394L15.511 4.33334L8.6667 7.52727Z" fill="#6F52ED"/>
</svg>
