<svg width="13" height="13" viewBox="0 0 13 13" fill="none" xmlns="http://www.w3.org/2000/svg">
<path d="M4.89091 5.61256L4.88579 5.59111L4.87881 5.57019C4.81632 5.38311 4.94269 5.09215 5.21754 4.99829C6.30811 4.65793 6.60017 3.26588 5.8016 2.46898L4.26329 0.933903L4.25151 0.922145L4.23897 0.911197C3.62474 0.374874 2.66527 0.343427 2.07355 0.933903L1.0297 1.97557L1.02958 1.97545L1.02074 1.98473C0.645033 2.37939 0.497988 2.90669 0.500021 3.45951C0.502046 4.01013 0.650321 4.6217 0.905786 5.25173C1.41738 6.51344 2.39513 7.93851 3.72174 9.26233C5.04675 10.5846 6.47391 11.574 7.73808 12.0918C8.36928 12.3503 8.98376 12.501 9.53805 12.5C10.0964 12.499 10.6269 12.3419 11.0209 11.9487L12.0647 10.9071L12.0765 10.8953L12.0875 10.8828C12.6255 10.2692 12.6571 9.31005 12.0647 8.71896C12.0647 8.71895 12.0647 8.71895 12.0647 8.71895L10.5264 7.18388C9.72963 6.38876 8.3362 6.67745 7.99453 7.76709C7.91721 7.99083 7.64126 8.14836 7.37553 8.09258C6.94792 7.98359 6.3819 7.62636 5.87488 7.12681C5.3647 6.62414 4.99752 6.05935 4.89091 5.61256Z" stroke="#6F52ED"/>
</svg>
